<svg width="295" height="182" viewBox="0 0 295 182" fill="none" xmlns="http://www.w3.org/2000/svg">
<g clip-path="url(#clip0_4714_77)">
<rect width="295" height="182" rx="10" fill="white"/>
<mask id="path-3-inside-1_4714_77" fill="white">
<path d="M0 10C0 4.47715 4.47715 0 10 0H286C291.523 0 296 4.47715 296 10V40H0V10Z"/>
</mask>
<path d="M0 10C0 4.47715 4.47715 0 10 0H286C291.523 0 296 4.47715 296 10V40H0V10Z" fill="white"/>
<path d="M0 0H296H0ZM296 41H0V39H296V41ZM0 40V0V40ZM296 0V40V0Z" fill="#D1D5DB" mask="url(#path-3-inside-1_4714_77)"/>
<path d="M18.25 25.25C21.5637 25.25 24.25 22.5637 24.25 19.25C24.25 15.9363 21.5637 13.25 18.25 13.25C14.9363 13.25 12.25 15.9363 12.25 19.25C12.25 22.5637 14.9363 25.25 18.25 25.25Z" stroke="#6B7280" stroke-width="2" stroke-linecap="round" stroke-linejoin="round"/>
<path d="M25.7499 26.75L22.5249 23.525" stroke="#6B7280" stroke-width="2" stroke-linecap="round" stroke-linejoin="round"/>
<path d="M38.9601 24V15.12H40.0161L44.6481 21.876V15.12H45.8241V24H44.7681L40.1361 17.256V24H38.9601Z" fill="#6B7280"/>
<path d="M50.3891 17.52C50.7891 17.52 51.1251 17.584 51.3971 17.712C51.6691 17.84 51.8891 17.992 52.0571 18.168C52.2251 18.336 52.3531 18.496 52.4411 18.648H52.5131V17.64H53.6531V24H52.5131V22.992H52.4411C52.3531 23.144 52.2251 23.308 52.0571 23.484C51.8891 23.66 51.6691 23.812 51.3971 23.94C51.1251 24.06 50.7891 24.12 50.3891 24.12C49.9091 24.12 49.4891 24.028 49.1291 23.844C48.7691 23.652 48.4691 23.4 48.2291 23.088C47.9891 22.768 47.8091 22.412 47.6891 22.02C47.5691 21.628 47.5091 21.228 47.5091 20.82C47.5091 20.412 47.5691 20.012 47.6891 19.62C47.8091 19.228 47.9891 18.876 48.2291 18.564C48.4691 18.244 48.7691 17.992 49.1291 17.808C49.4891 17.616 49.9091 17.52 50.3891 17.52ZM50.5811 18.492C50.1571 18.492 49.8011 18.608 49.5131 18.84C49.2251 19.064 49.0091 19.352 48.8651 19.704C48.7291 20.056 48.6611 20.428 48.6611 20.82C48.6611 21.204 48.7291 21.576 48.8651 21.936C49.0091 22.288 49.2251 22.58 49.5131 22.812C49.8011 23.036 50.1571 23.148 50.5811 23.148C51.0051 23.148 51.3571 23.036 51.6371 22.812C51.9251 22.58 52.1371 22.288 52.2731 21.936C52.4171 21.576 52.4891 21.204 52.4891 20.82C52.4891 20.428 52.4171 20.056 52.2731 19.704C52.1371 19.352 51.9251 19.064 51.6371 18.84C51.3571 18.608 51.0051 18.492 50.5811 18.492Z" fill="#6B7280"/>
<path d="M55.3284 24V17.64H56.4684V18.564H56.5164C56.5804 18.444 56.6804 18.304 56.8164 18.144C56.9524 17.976 57.1364 17.832 57.3684 17.712C57.6084 17.584 57.9084 17.52 58.2684 17.52C58.7404 17.52 59.1364 17.636 59.4564 17.868C59.7844 18.092 60.0284 18.396 60.1884 18.78H60.2004C60.3764 18.428 60.6244 18.132 60.9444 17.892C61.2724 17.644 61.6964 17.52 62.2164 17.52C62.9044 17.52 63.4324 17.756 63.8004 18.228C64.1764 18.692 64.3644 19.292 64.3644 20.028V24H63.2244V20.088C63.2244 19.616 63.1124 19.236 62.8884 18.948C62.6644 18.652 62.3404 18.504 61.9164 18.504C61.5484 18.504 61.2524 18.604 61.0284 18.804C60.8124 19.004 60.6564 19.252 60.5604 19.548C60.4644 19.844 60.4164 20.14 60.4164 20.436V24H59.2764V20.088C59.2764 19.616 59.1644 19.236 58.9404 18.948C58.7244 18.652 58.4004 18.504 57.9684 18.504C57.6004 18.504 57.3044 18.604 57.0804 18.804C56.8644 19.004 56.7084 19.256 56.6124 19.56C56.5164 19.856 56.4684 20.148 56.4684 20.436V24H55.3284Z" fill="#6B7280"/>
<path d="M68.9313 24.12C68.4113 24.12 67.9593 24.028 67.5753 23.844C67.1993 23.652 66.8873 23.396 66.6393 23.076C66.3993 22.756 66.2193 22.404 66.0993 22.02C65.9793 21.628 65.9193 21.228 65.9193 20.82C65.9193 20.42 65.9753 20.024 66.0873 19.632C66.2073 19.24 66.3873 18.884 66.6273 18.564C66.8753 18.244 67.1833 17.992 67.5513 17.808C67.9273 17.616 68.3713 17.52 68.8833 17.52C69.4273 17.52 69.9073 17.644 70.3233 17.892C70.7393 18.14 71.0673 18.508 71.3073 18.996C71.5473 19.484 71.6673 20.096 71.6673 20.832V21.168H67.0713C67.0953 21.528 67.1793 21.86 67.3233 22.164C67.4753 22.46 67.6873 22.7 67.9593 22.884C68.2313 23.06 68.5553 23.148 68.9313 23.148C69.2593 23.148 69.5233 23.096 69.7233 22.992C69.9313 22.88 70.0953 22.752 70.2153 22.608C70.3353 22.464 70.4153 22.34 70.4553 22.236C70.5033 22.124 70.5273 22.068 70.5273 22.068H71.5953C71.5953 22.068 71.5753 22.14 71.5353 22.284C71.4953 22.42 71.4233 22.588 71.3193 22.788C71.2153 22.988 71.0633 23.192 70.8633 23.4C70.6633 23.6 70.4073 23.772 70.0953 23.916C69.7833 24.052 69.3953 24.12 68.9313 24.12ZM67.0833 20.28H70.5513C70.5353 19.864 70.4473 19.528 70.2873 19.272C70.1273 19.008 69.9233 18.812 69.6753 18.684C69.4273 18.556 69.1633 18.492 68.8833 18.492C68.3793 18.492 67.9673 18.656 67.6473 18.984C67.3273 19.304 67.1393 19.736 67.0833 20.28Z" fill="#6B7280"/>
<path d="M79.0005 24.12C78.3205 24.12 77.7485 23.964 77.2845 23.652C76.8205 23.332 76.4685 22.92 76.2285 22.416C75.9885 21.912 75.8685 21.38 75.8685 20.82C75.8685 20.252 75.9885 19.72 76.2285 19.224C76.4685 18.72 76.8205 18.312 77.2845 18C77.7485 17.68 78.3205 17.52 79.0005 17.52C79.6805 17.52 80.2525 17.68 80.7165 18C81.1805 18.312 81.5325 18.72 81.7725 19.224C82.0125 19.72 82.1325 20.252 82.1325 20.82C82.1325 21.38 82.0125 21.912 81.7725 22.416C81.5325 22.92 81.1805 23.332 80.7165 23.652C80.2525 23.964 79.6805 24.12 79.0005 24.12ZM79.0005 23.124C79.4325 23.124 79.7925 23.016 80.0805 22.8C80.3765 22.576 80.5965 22.288 80.7405 21.936C80.8925 21.584 80.9685 21.212 80.9685 20.82C80.9685 20.42 80.8925 20.048 80.7405 19.704C80.5965 19.352 80.3765 19.068 80.0805 18.852C79.7925 18.628 79.4325 18.516 79.0005 18.516C78.5765 18.516 78.2165 18.628 77.9205 18.852C77.6245 19.068 77.4005 19.352 77.2485 19.704C77.1045 20.048 77.0325 20.42 77.0325 20.82C77.0325 21.212 77.1045 21.584 77.2485 21.936C77.4005 22.288 77.6245 22.576 77.9205 22.8C78.2165 23.016 78.5765 23.124 79.0005 23.124Z" fill="#6B7280"/>
<path d="M84.4317 24V18.576H83.3877V17.64H84.4317V16.86C84.4317 16.524 84.4917 16.196 84.6117 15.876C84.7317 15.548 84.9317 15.28 85.2117 15.072C85.4917 14.864 85.8717 14.76 86.3517 14.76C86.5837 14.76 86.7677 14.78 86.9037 14.82C87.0477 14.852 87.1197 14.868 87.1197 14.868V15.768C87.1197 15.768 87.0557 15.756 86.9277 15.732C86.8077 15.7 86.6677 15.684 86.5077 15.684C86.1397 15.684 85.8917 15.796 85.7637 16.02C85.6357 16.244 85.5717 16.524 85.5717 16.86V17.64H87.0477V18.576H85.5717V24H84.4317Z" fill="#6B7280"/>
<path d="M91.3223 26.34C91.1383 26.34 90.9823 26.332 90.8543 26.316C90.7263 26.3 90.6623 26.292 90.6623 26.292V25.32C90.6623 25.32 90.7263 25.324 90.8543 25.332C90.9903 25.348 91.1343 25.356 91.2863 25.356C91.7583 25.356 92.1423 25.256 92.4383 25.056C92.7423 24.864 92.9983 24.544 93.2063 24.096L90.7463 17.64H91.9343L93.7703 22.608L95.6183 17.64H96.8183L94.3583 24.012C94.0463 24.812 93.6423 25.4 93.1463 25.776C92.6583 26.152 92.0503 26.34 91.3223 26.34Z" fill="#6B7280"/>
<path d="M100.668 24.12C99.9885 24.12 99.4165 23.964 98.9525 23.652C98.4885 23.332 98.1365 22.92 97.8965 22.416C97.6565 21.912 97.5365 21.38 97.5365 20.82C97.5365 20.252 97.6565 19.72 97.8965 19.224C98.1365 18.72 98.4885 18.312 98.9525 18C99.4165 17.68 99.9885 17.52 100.668 17.52C101.348 17.52 101.92 17.68 102.384 18C102.848 18.312 103.2 18.72 103.44 19.224C103.68 19.72 103.8 20.252 103.8 20.82C103.8 21.38 103.68 21.912 103.44 22.416C103.2 22.92 102.848 23.332 102.384 23.652C101.92 23.964 101.348 24.12 100.668 24.12ZM100.668 23.124C101.1 23.124 101.46 23.016 101.748 22.8C102.044 22.576 102.264 22.288 102.408 21.936C102.56 21.584 102.636 21.212 102.636 20.82C102.636 20.42 102.56 20.048 102.408 19.704C102.264 19.352 102.044 19.068 101.748 18.852C101.46 18.628 101.1 18.516 100.668 18.516C100.244 18.516 99.8845 18.628 99.5885 18.852C99.2925 19.068 99.0685 19.352 98.9165 19.704C98.7725 20.048 98.7005 20.42 98.7005 20.82C98.7005 21.212 98.7725 21.584 98.9165 21.936C99.0685 22.288 99.2925 22.576 99.5885 22.8C99.8845 23.016 100.244 23.124 100.668 23.124Z" fill="#6B7280"/>
<path d="M107.432 24.12C106.8 24.12 106.296 23.924 105.92 23.532C105.544 23.14 105.356 22.596 105.356 21.9V17.64H106.496V21.84C106.496 22.256 106.608 22.576 106.832 22.8C107.064 23.024 107.368 23.136 107.744 23.136C108.128 23.136 108.436 23.036 108.668 22.836C108.9 22.636 109.068 22.38 109.172 22.068C109.276 21.756 109.328 21.436 109.328 21.108V17.64H110.468V24H109.328V23.088H109.256C109.208 23.184 109.116 23.316 108.98 23.484C108.844 23.644 108.652 23.792 108.404 23.928C108.156 24.056 107.832 24.12 107.432 24.12Z" fill="#6B7280"/>
<path d="M112.153 24V17.64H113.293V18.432H113.341C113.477 18.192 113.677 17.98 113.941 17.796C114.205 17.612 114.577 17.52 115.057 17.52C115.193 17.52 115.317 17.528 115.429 17.544C115.541 17.552 115.597 17.556 115.597 17.556V18.648C115.597 18.648 115.533 18.644 115.405 18.636C115.285 18.62 115.157 18.612 115.021 18.612C114.469 18.612 114.041 18.772 113.737 19.092C113.441 19.404 113.293 19.916 113.293 20.628V24H112.153Z" fill="#6B7280"/>
<path d="M119.737 26.352V17.64H120.877V18.648H120.949C121.045 18.496 121.173 18.332 121.333 18.156C121.501 17.98 121.721 17.832 121.993 17.712C122.265 17.584 122.601 17.52 123.001 17.52C123.481 17.52 123.901 17.616 124.261 17.808C124.621 17.992 124.921 18.244 125.161 18.564C125.401 18.876 125.581 19.228 125.701 19.62C125.821 20.012 125.881 20.412 125.881 20.82C125.881 21.228 125.821 21.628 125.701 22.02C125.581 22.412 125.401 22.768 125.161 23.088C124.921 23.4 124.621 23.652 124.261 23.844C123.901 24.028 123.481 24.12 123.001 24.12C122.601 24.12 122.265 24.056 121.993 23.928C121.721 23.8 121.501 23.648 121.333 23.472C121.173 23.296 121.045 23.136 120.949 22.992H120.877V26.352H119.737ZM120.901 20.82C120.901 21.204 120.969 21.576 121.105 21.936C121.249 22.288 121.461 22.58 121.741 22.812C122.029 23.036 122.385 23.148 122.809 23.148C123.241 23.148 123.597 23.036 123.877 22.812C124.165 22.58 124.377 22.288 124.513 21.936C124.657 21.576 124.729 21.204 124.729 20.82C124.729 20.428 124.657 20.056 124.513 19.704C124.377 19.352 124.165 19.064 123.877 18.84C123.597 18.608 123.241 18.492 122.809 18.492C122.385 18.492 122.029 18.608 121.741 18.84C121.461 19.064 121.249 19.352 121.105 19.704C120.969 20.056 120.901 20.428 120.901 20.82Z" fill="#6B7280"/>
<path d="M127.446 24V17.64H128.586V18.432H128.634C128.77 18.192 128.97 17.98 129.234 17.796C129.498 17.612 129.87 17.52 130.35 17.52C130.486 17.52 130.61 17.528 130.722 17.544C130.834 17.552 130.89 17.556 130.89 17.556V18.648C130.89 18.648 130.826 18.644 130.698 18.636C130.578 18.62 130.45 18.612 130.314 18.612C129.762 18.612 129.334 18.772 129.03 19.092C128.734 19.404 128.586 19.916 128.586 20.628V24H127.446Z" fill="#6B7280"/>
<path d="M134.676 24.12C133.996 24.12 133.424 23.964 132.96 23.652C132.496 23.332 132.144 22.92 131.904 22.416C131.664 21.912 131.544 21.38 131.544 20.82C131.544 20.252 131.664 19.72 131.904 19.224C132.144 18.72 132.496 18.312 132.96 18C133.424 17.68 133.996 17.52 134.676 17.52C135.356 17.52 135.928 17.68 136.392 18C136.856 18.312 137.208 18.72 137.448 19.224C137.688 19.72 137.808 20.252 137.808 20.82C137.808 21.38 137.688 21.912 137.448 22.416C137.208 22.92 136.856 23.332 136.392 23.652C135.928 23.964 135.356 24.12 134.676 24.12ZM134.676 23.124C135.108 23.124 135.468 23.016 135.756 22.8C136.052 22.576 136.272 22.288 136.416 21.936C136.568 21.584 136.644 21.212 136.644 20.82C136.644 20.42 136.568 20.048 136.416 19.704C136.272 19.352 136.052 19.068 135.756 18.852C135.468 18.628 135.108 18.516 134.676 18.516C134.252 18.516 133.892 18.628 133.596 18.852C133.3 19.068 133.076 19.352 132.924 19.704C132.78 20.048 132.708 20.42 132.708 20.82C132.708 21.212 132.78 21.584 132.924 21.936C133.076 22.288 133.3 22.576 133.596 22.8C133.892 23.016 134.252 23.124 134.676 23.124Z" fill="#6B7280"/>
<path d="M139.993 16.428C139.777 16.428 139.597 16.356 139.453 16.212C139.317 16.068 139.249 15.896 139.249 15.696C139.249 15.488 139.317 15.312 139.453 15.168C139.597 15.024 139.777 14.952 139.993 14.952C140.201 14.952 140.377 15.024 140.521 15.168C140.665 15.312 140.737 15.488 140.737 15.696C140.737 15.896 140.665 16.068 140.521 16.212C140.377 16.356 140.201 16.428 139.993 16.428ZM138.529 26.28C138.305 26.28 138.121 26.268 137.977 26.244C137.825 26.22 137.749 26.208 137.749 26.208V25.2C137.749 25.2 137.801 25.208 137.905 25.224C138.009 25.24 138.137 25.248 138.289 25.248C138.713 25.248 139.009 25.152 139.177 24.96C139.345 24.776 139.429 24.484 139.429 24.084V17.64H140.569V24.084C140.569 24.34 140.537 24.596 140.473 24.852C140.417 25.108 140.313 25.344 140.161 25.56C140.009 25.776 139.801 25.948 139.537 26.076C139.273 26.212 138.937 26.28 138.529 26.28Z" fill="#6B7280"/>
<path d="M145.08 24.12C144.56 24.12 144.108 24.028 143.724 23.844C143.348 23.652 143.036 23.396 142.788 23.076C142.548 22.756 142.368 22.404 142.248 22.02C142.128 21.628 142.068 21.228 142.068 20.82C142.068 20.42 142.124 20.024 142.236 19.632C142.356 19.24 142.536 18.884 142.776 18.564C143.024 18.244 143.332 17.992 143.7 17.808C144.076 17.616 144.52 17.52 145.032 17.52C145.576 17.52 146.056 17.644 146.472 17.892C146.888 18.14 147.216 18.508 147.456 18.996C147.696 19.484 147.816 20.096 147.816 20.832V21.168H143.22C143.244 21.528 143.328 21.86 143.472 22.164C143.624 22.46 143.836 22.7 144.108 22.884C144.38 23.06 144.704 23.148 145.08 23.148C145.408 23.148 145.672 23.096 145.872 22.992C146.08 22.88 146.244 22.752 146.364 22.608C146.484 22.464 146.564 22.34 146.604 22.236C146.652 22.124 146.676 22.068 146.676 22.068H147.744C147.744 22.068 147.724 22.14 147.684 22.284C147.644 22.42 147.572 22.588 147.468 22.788C147.364 22.988 147.212 23.192 147.012 23.4C146.812 23.6 146.556 23.772 146.244 23.916C145.932 24.052 145.544 24.12 145.08 24.12ZM143.232 20.28H146.7C146.684 19.864 146.596 19.528 146.436 19.272C146.276 19.008 146.072 18.812 145.824 18.684C145.576 18.556 145.312 18.492 145.032 18.492C144.528 18.492 144.116 18.656 143.796 18.984C143.476 19.304 143.288 19.736 143.232 20.28Z" fill="#6B7280"/>
<path d="M152.325 24.12C151.805 24.12 151.349 24.028 150.957 23.844C150.565 23.652 150.237 23.4 149.973 23.088C149.717 22.768 149.521 22.412 149.385 22.02C149.257 21.628 149.193 21.228 149.193 20.82C149.193 20.412 149.257 20.016 149.385 19.632C149.513 19.24 149.705 18.884 149.961 18.564C150.225 18.244 150.553 17.992 150.945 17.808C151.337 17.616 151.797 17.52 152.325 17.52C152.837 17.52 153.261 17.596 153.597 17.748C153.933 17.9 154.201 18.092 154.401 18.324C154.609 18.548 154.761 18.776 154.857 19.008C154.961 19.232 155.029 19.42 155.061 19.572C155.093 19.724 155.109 19.8 155.109 19.8H154.005C154.005 19.8 153.985 19.736 153.945 19.608C153.905 19.472 153.829 19.32 153.717 19.152C153.605 18.984 153.437 18.836 153.213 18.708C152.989 18.572 152.693 18.504 152.325 18.504C151.885 18.504 151.513 18.616 151.209 18.84C150.913 19.056 150.689 19.34 150.537 19.692C150.393 20.044 150.321 20.42 150.321 20.82C150.321 21.22 150.393 21.596 150.537 21.948C150.689 22.3 150.913 22.588 151.209 22.812C151.513 23.028 151.885 23.136 152.325 23.136C152.693 23.136 152.989 23.072 153.213 22.944C153.437 22.808 153.605 22.656 153.717 22.488C153.829 22.32 153.905 22.172 153.945 22.044C153.985 21.908 154.005 21.84 154.005 21.84H155.109C155.109 21.84 155.093 21.916 155.061 22.068C155.029 22.22 154.961 22.412 154.857 22.644C154.761 22.868 154.609 23.096 154.401 23.328C154.201 23.552 153.933 23.74 153.597 23.892C153.261 24.044 152.837 24.12 152.325 24.12Z" fill="#6B7280"/>
<path d="M159.372 24.12C158.716 24.12 158.22 23.952 157.884 23.616C157.556 23.28 157.392 22.808 157.392 22.2V18.576H156.252V17.64H157.392V16.044H158.532V17.64H160.08V18.576H158.532V22.2C158.532 22.52 158.62 22.756 158.796 22.908C158.972 23.052 159.228 23.124 159.564 23.124C159.74 23.124 159.908 23.112 160.068 23.088C160.228 23.064 160.308 23.052 160.308 23.052V24.024C160.308 24.024 160.216 24.04 160.032 24.072C159.848 24.104 159.628 24.12 159.372 24.12Z" fill="#6B7280"/>
<path d="M161.901 25.476L162.765 24.084C162.573 24.068 162.409 23.988 162.273 23.844C162.145 23.7 162.081 23.524 162.081 23.316C162.081 23.084 162.161 22.9 162.321 22.764C162.481 22.628 162.661 22.56 162.861 22.56C163.085 22.56 163.273 22.628 163.425 22.764C163.585 22.9 163.665 23.092 163.665 23.34C163.665 23.564 163.577 23.82 163.401 24.108C163.233 24.396 162.961 24.812 162.585 25.356L162.501 25.476H161.901Z" fill="#6B7280"/>
<path d="M168.203 24V17.64H169.343V18.564H169.391C169.455 18.444 169.555 18.304 169.691 18.144C169.827 17.976 170.011 17.832 170.243 17.712C170.483 17.584 170.783 17.52 171.143 17.52C171.615 17.52 172.011 17.636 172.331 17.868C172.659 18.092 172.903 18.396 173.063 18.78H173.075C173.251 18.428 173.499 18.132 173.819 17.892C174.147 17.644 174.571 17.52 175.091 17.52C175.779 17.52 176.307 17.756 176.675 18.228C177.051 18.692 177.239 19.292 177.239 20.028V24H176.099V20.088C176.099 19.616 175.987 19.236 175.763 18.948C175.539 18.652 175.215 18.504 174.791 18.504C174.423 18.504 174.127 18.604 173.903 18.804C173.687 19.004 173.531 19.252 173.435 19.548C173.339 19.844 173.291 20.14 173.291 20.436V24H172.151V20.088C172.151 19.616 172.039 19.236 171.815 18.948C171.599 18.652 171.275 18.504 170.843 18.504C170.475 18.504 170.179 18.604 169.955 18.804C169.739 19.004 169.583 19.256 169.487 19.56C169.391 19.856 169.343 20.148 169.343 20.436V24H168.203Z" fill="#6B7280"/>
<path d="M179.658 16.428C179.442 16.428 179.262 16.356 179.118 16.212C178.982 16.068 178.914 15.896 178.914 15.696C178.914 15.488 178.982 15.312 179.118 15.168C179.262 15.024 179.442 14.952 179.658 14.952C179.866 14.952 180.042 15.024 180.186 15.168C180.33 15.312 180.402 15.488 180.402 15.696C180.402 15.896 180.33 16.068 180.186 16.212C180.042 16.356 179.866 16.428 179.658 16.428ZM179.094 24V17.64H180.234V24H179.094Z" fill="#6B7280"/>
<path d="M182.198 24L182.21 14.88H183.338V24H182.198Z" fill="#6B7280"/>
<path d="M188.029 24.12C187.509 24.12 187.057 24.028 186.673 23.844C186.297 23.652 185.985 23.396 185.737 23.076C185.497 22.756 185.317 22.404 185.197 22.02C185.077 21.628 185.017 21.228 185.017 20.82C185.017 20.42 185.073 20.024 185.185 19.632C185.305 19.24 185.485 18.884 185.725 18.564C185.973 18.244 186.281 17.992 186.649 17.808C187.025 17.616 187.469 17.52 187.981 17.52C188.525 17.52 189.005 17.644 189.421 17.892C189.837 18.14 190.165 18.508 190.405 18.996C190.645 19.484 190.765 20.096 190.765 20.832V21.168H186.169C186.193 21.528 186.277 21.86 186.421 22.164C186.573 22.46 186.785 22.7 187.057 22.884C187.329 23.06 187.653 23.148 188.029 23.148C188.357 23.148 188.621 23.096 188.821 22.992C189.029 22.88 189.193 22.752 189.313 22.608C189.433 22.464 189.513 22.34 189.553 22.236C189.601 22.124 189.625 22.068 189.625 22.068H190.693C190.693 22.068 190.673 22.14 190.633 22.284C190.593 22.42 190.521 22.588 190.417 22.788C190.313 22.988 190.161 23.192 189.961 23.4C189.761 23.6 189.505 23.772 189.193 23.916C188.881 24.052 188.493 24.12 188.029 24.12ZM186.181 20.28H189.649C189.633 19.864 189.545 19.528 189.385 19.272C189.225 19.008 189.021 18.812 188.773 18.684C188.525 18.556 188.261 18.492 187.981 18.492C187.477 18.492 187.065 18.656 186.745 18.984C186.425 19.304 186.237 19.736 186.181 20.28Z" fill="#6B7280"/>
<path d="M193.197 24.12C192.973 24.12 192.785 24.044 192.633 23.892C192.489 23.732 192.417 23.548 192.417 23.34C192.417 23.124 192.489 22.94 192.633 22.788C192.785 22.636 192.973 22.56 193.197 22.56C193.421 22.56 193.605 22.636 193.749 22.788C193.901 22.94 193.977 23.124 193.977 23.34C193.977 23.556 193.901 23.74 193.749 23.892C193.605 24.044 193.421 24.12 193.197 24.12Z" fill="#6B7280"/>
<path d="M196.396 24.12C196.172 24.12 195.984 24.044 195.832 23.892C195.688 23.732 195.616 23.548 195.616 23.34C195.616 23.124 195.688 22.94 195.832 22.788C195.984 22.636 196.172 22.56 196.396 22.56C196.62 22.56 196.804 22.636 196.948 22.788C197.1 22.94 197.176 23.124 197.176 23.34C197.176 23.556 197.1 23.74 196.948 23.892C196.804 24.044 196.62 24.12 196.396 24.12Z" fill="#6B7280"/>
<path d="M199.595 24.12C199.371 24.12 199.183 24.044 199.031 23.892C198.887 23.732 198.815 23.548 198.815 23.34C198.815 23.124 198.887 22.94 199.031 22.788C199.183 22.636 199.371 22.56 199.595 22.56C199.819 22.56 200.003 22.636 200.147 22.788C200.299 22.94 200.375 23.124 200.375 23.34C200.375 23.556 200.299 23.74 200.147 23.892C200.003 24.044 199.819 24.12 199.595 24.12Z" fill="#6B7280"/>
<path d="M14.0681 64.12C13.5161 64.12 13.0441 64.052 12.6521 63.916C12.2601 63.78 11.9321 63.604 11.6681 63.388C11.4121 63.172 11.2081 62.944 11.0561 62.704C10.9041 62.456 10.7881 62.224 10.7081 62.008C10.6361 61.792 10.5881 61.616 10.5641 61.48C10.5401 61.344 10.5281 61.276 10.5281 61.276H12.1841C12.1841 61.276 12.1921 61.324 12.2081 61.42C12.2321 61.516 12.2801 61.64 12.3521 61.792C12.4241 61.936 12.5281 62.08 12.6641 62.224C12.8081 62.368 12.9961 62.492 13.2281 62.596C13.4681 62.692 13.7641 62.74 14.1161 62.74C14.6601 62.74 15.0721 62.62 15.3521 62.38C15.6401 62.132 15.7841 61.828 15.7841 61.468C15.7841 61.164 15.6761 60.924 15.4601 60.748C15.2441 60.564 14.9241 60.428 14.5001 60.34L13.3241 60.088C12.8681 59.992 12.4401 59.848 12.0401 59.656C11.6481 59.464 11.3321 59.204 11.0921 58.876C10.8521 58.548 10.7321 58.128 10.7321 57.616C10.7321 57.08 10.8641 56.616 11.1281 56.224C11.4001 55.832 11.7721 55.532 12.2441 55.324C12.7161 55.108 13.2681 55 13.9001 55C14.5001 55 14.9961 55.088 15.3881 55.264C15.7801 55.44 16.0921 55.656 16.3241 55.912C16.5641 56.168 16.7401 56.424 16.8521 56.68C16.9641 56.936 17.0361 57.152 17.0681 57.328C17.1081 57.504 17.1281 57.592 17.1281 57.592H15.5321C15.5321 57.592 15.5161 57.532 15.4841 57.412C15.4521 57.284 15.3801 57.14 15.2681 56.98C15.1561 56.82 14.9881 56.68 14.7641 56.56C14.5401 56.432 14.2401 56.368 13.8641 56.368C13.3281 56.368 12.9361 56.488 12.6881 56.728C12.4481 56.968 12.3281 57.228 12.3281 57.508C12.3281 57.796 12.4401 58.02 12.6641 58.18C12.8881 58.34 13.1881 58.464 13.5641 58.552L14.8241 58.816C15.2961 58.92 15.7281 59.076 16.1201 59.284C16.5121 59.492 16.8241 59.768 17.0561 60.112C17.2881 60.448 17.4041 60.868 17.4041 61.372C17.4041 61.884 17.2761 62.348 17.0201 62.764C16.7641 63.18 16.3881 63.512 15.8921 63.76C15.3961 64 14.7881 64.12 14.0681 64.12Z" fill="#64748B"/>
<path d="M20.6351 64.12C19.9711 64.12 19.4671 63.916 19.1231 63.508C18.7871 63.1 18.6191 62.576 18.6191 61.936V57.64H20.2031V61.672C20.2031 62.016 20.2951 62.292 20.4791 62.5C20.6631 62.7 20.9231 62.8 21.2591 62.8C21.5551 62.8 21.7951 62.724 21.9791 62.572C22.1631 62.42 22.2951 62.224 22.3751 61.984C22.4631 61.744 22.5071 61.496 22.5071 61.24V57.64H24.1031V64H22.5071V63.088H22.4351C22.3551 63.232 22.2391 63.384 22.0871 63.544C21.9431 63.704 21.7511 63.84 21.5111 63.952C21.2791 64.064 20.9871 64.12 20.6351 64.12Z" fill="#64748B"/>
<path d="M28.7837 66.544C28.2157 66.544 27.7437 66.468 27.3677 66.316C26.9997 66.172 26.7077 65.992 26.4917 65.776C26.2757 65.568 26.1157 65.356 26.0117 65.14C25.9077 64.924 25.8397 64.744 25.8077 64.6C25.7757 64.456 25.7597 64.384 25.7597 64.384H27.3197C27.3197 64.384 27.3357 64.428 27.3677 64.516C27.3997 64.604 27.4637 64.704 27.5597 64.816C27.6637 64.936 27.8117 65.04 28.0037 65.128C28.1957 65.216 28.4517 65.26 28.7717 65.26C29.3317 65.26 29.7357 65.1 29.9837 64.78C30.2317 64.46 30.3557 64.072 30.3557 63.616V62.908H30.2837C30.1957 63.044 30.0677 63.192 29.8997 63.352C29.7397 63.512 29.5277 63.648 29.2637 63.76C29.0077 63.872 28.6957 63.928 28.3277 63.928C27.8557 63.928 27.4437 63.836 27.0917 63.652C26.7397 63.468 26.4437 63.224 26.2037 62.92C25.9637 62.616 25.7837 62.276 25.6637 61.9C25.5517 61.516 25.4957 61.124 25.4957 60.724C25.4957 60.324 25.5517 59.936 25.6637 59.56C25.7837 59.176 25.9637 58.832 26.2037 58.528C26.4437 58.216 26.7397 57.972 27.0917 57.796C27.4437 57.612 27.8557 57.52 28.3277 57.52C28.6957 57.52 29.0077 57.576 29.2637 57.688C29.5277 57.8 29.7397 57.936 29.8997 58.096C30.0677 58.248 30.1957 58.392 30.2837 58.528H30.3557V57.64H31.9517V63.604C31.9517 64.156 31.8357 64.652 31.6037 65.092C31.3717 65.54 31.0197 65.892 30.5477 66.148C30.0837 66.412 29.4957 66.544 28.7837 66.544ZM28.7477 62.644C29.1077 62.644 29.4077 62.552 29.6477 62.368C29.8877 62.176 30.0677 61.936 30.1877 61.648C30.3077 61.352 30.3677 61.044 30.3677 60.724C30.3677 60.396 30.3077 60.088 30.1877 59.8C30.0677 59.504 29.8877 59.264 29.6477 59.08C29.4077 58.896 29.1077 58.804 28.7477 58.804C28.3797 58.804 28.0717 58.896 27.8237 59.08C27.5837 59.264 27.4037 59.504 27.2837 59.8C27.1637 60.088 27.1037 60.396 27.1037 60.724C27.1037 61.044 27.1637 61.352 27.2837 61.648C27.4037 61.936 27.5837 62.176 27.8237 62.368C28.0717 62.552 28.3797 62.644 28.7477 62.644Z" fill="#64748B"/>
<path d="M36.4947 66.544C35.9267 66.544 35.4547 66.468 35.0787 66.316C34.7107 66.172 34.4187 65.992 34.2027 65.776C33.9867 65.568 33.8267 65.356 33.7227 65.14C33.6187 64.924 33.5507 64.744 33.5187 64.6C33.4867 64.456 33.4707 64.384 33.4707 64.384H35.0307C35.0307 64.384 35.0467 64.428 35.0787 64.516C35.1107 64.604 35.1747 64.704 35.2707 64.816C35.3747 64.936 35.5227 65.04 35.7147 65.128C35.9067 65.216 36.1627 65.26 36.4827 65.26C37.0427 65.26 37.4467 65.1 37.6947 64.78C37.9427 64.46 38.0667 64.072 38.0667 63.616V62.908H37.9947C37.9067 63.044 37.7787 63.192 37.6107 63.352C37.4507 63.512 37.2387 63.648 36.9747 63.76C36.7187 63.872 36.4067 63.928 36.0387 63.928C35.5667 63.928 35.1547 63.836 34.8027 63.652C34.4507 63.468 34.1547 63.224 33.9147 62.92C33.6747 62.616 33.4947 62.276 33.3747 61.9C33.2627 61.516 33.2067 61.124 33.2067 60.724C33.2067 60.324 33.2627 59.936 33.3747 59.56C33.4947 59.176 33.6747 58.832 33.9147 58.528C34.1547 58.216 34.4507 57.972 34.8027 57.796C35.1547 57.612 35.5667 57.52 36.0387 57.52C36.4067 57.52 36.7187 57.576 36.9747 57.688C37.2387 57.8 37.4507 57.936 37.6107 58.096C37.7787 58.248 37.9067 58.392 37.9947 58.528H38.0667V57.64H39.6627V63.604C39.6627 64.156 39.5467 64.652 39.3147 65.092C39.0827 65.54 38.7307 65.892 38.2587 66.148C37.7947 66.412 37.2067 66.544 36.4947 66.544ZM36.4587 62.644C36.8187 62.644 37.1187 62.552 37.3587 62.368C37.5987 62.176 37.7787 61.936 37.8987 61.648C38.0187 61.352 38.0787 61.044 38.0787 60.724C38.0787 60.396 38.0187 60.088 37.8987 59.8C37.7787 59.504 37.5987 59.264 37.3587 59.08C37.1187 58.896 36.8187 58.804 36.4587 58.804C36.0907 58.804 35.7827 58.896 35.5347 59.08C35.2947 59.264 35.1147 59.504 34.9947 59.8C34.8747 60.088 34.8147 60.396 34.8147 60.724C34.8147 61.044 34.8747 61.352 34.9947 61.648C35.1147 61.936 35.2947 62.176 35.5347 62.368C35.7827 62.552 36.0907 62.644 36.4587 62.644Z" fill="#64748B"/>
<path d="M44.0856 64.12C43.5416 64.12 43.0696 64.028 42.6696 63.844C42.2776 63.652 41.9496 63.4 41.6856 63.088C41.4296 62.768 41.2376 62.412 41.1096 62.02C40.9816 61.628 40.9176 61.228 40.9176 60.82C40.9176 60.412 40.9776 60.016 41.0976 59.632C41.2256 59.24 41.4136 58.884 41.6616 58.564C41.9176 58.244 42.2416 57.992 42.6336 57.808C43.0256 57.616 43.4896 57.52 44.0256 57.52C44.6016 57.52 45.1096 57.648 45.5496 57.904C45.9896 58.16 46.3336 58.536 46.5816 59.032C46.8296 59.52 46.9536 60.128 46.9536 60.856V61.264H42.5256C42.5496 61.696 42.6976 62.072 42.9696 62.392C43.2416 62.704 43.6136 62.86 44.0856 62.86C44.3576 62.86 44.5816 62.816 44.7576 62.728C44.9336 62.64 45.0696 62.54 45.1656 62.428C45.2616 62.308 45.3296 62.208 45.3696 62.128C45.4096 62.04 45.4296 61.996 45.4296 61.996H46.9056C46.9056 61.996 46.8856 62.068 46.8456 62.212C46.8056 62.348 46.7296 62.524 46.6176 62.74C46.5136 62.948 46.3576 63.16 46.1496 63.376C45.9416 63.584 45.6696 63.76 45.3336 63.904C44.9976 64.048 44.5816 64.12 44.0856 64.12ZM42.5256 60.22H45.4176C45.3936 59.724 45.2456 59.356 44.9736 59.116C44.7016 58.876 44.3816 58.756 44.0136 58.756C43.6056 58.756 43.2656 58.888 42.9936 59.152C42.7216 59.408 42.5656 59.764 42.5256 60.22Z" fill="#64748B"/>
<path d="M50.9175 64.12C50.3975 64.12 49.9695 64.052 49.6335 63.916C49.2975 63.772 49.0295 63.596 48.8295 63.388C48.6375 63.172 48.4935 62.96 48.3975 62.752C48.3015 62.544 48.2375 62.372 48.2055 62.236C48.1815 62.092 48.1695 62.02 48.1695 62.02H49.6815C49.6815 62.02 49.6935 62.064 49.7175 62.152C49.7495 62.24 49.8055 62.344 49.8855 62.464C49.9735 62.576 50.1055 62.676 50.2815 62.764C50.4575 62.852 50.6895 62.896 50.9775 62.896C51.3215 62.896 51.5695 62.824 51.7215 62.68C51.8735 62.528 51.9495 62.36 51.9495 62.176C51.9495 62 51.8815 61.86 51.7455 61.756C51.6175 61.644 51.4255 61.56 51.1695 61.504L50.2935 61.324C49.9415 61.252 49.6135 61.148 49.3095 61.012C49.0055 60.868 48.7575 60.676 48.5655 60.436C48.3735 60.188 48.2775 59.872 48.2775 59.488C48.2775 58.92 48.4935 58.452 48.9255 58.084C49.3575 57.708 49.9455 57.52 50.6895 57.52C51.1615 57.52 51.5495 57.584 51.8535 57.712C52.1655 57.84 52.4135 58 52.5975 58.192C52.7895 58.384 52.9295 58.576 53.0175 58.768C53.1135 58.96 53.1735 59.124 53.1975 59.26C53.2295 59.388 53.2455 59.452 53.2455 59.452H51.7815C51.7815 59.452 51.7695 59.416 51.7455 59.344C51.7215 59.264 51.6695 59.176 51.5895 59.08C51.5175 58.984 51.4055 58.9 51.2535 58.828C51.1095 58.748 50.9135 58.708 50.6655 58.708C50.3295 58.708 50.0895 58.78 49.9455 58.924C49.8095 59.068 49.7415 59.22 49.7415 59.38C49.7415 59.556 49.8175 59.692 49.9695 59.788C50.1215 59.884 50.3175 59.956 50.5575 60.004L51.3855 60.184C51.9775 60.304 52.4615 60.512 52.8375 60.808C53.2215 61.104 53.4135 61.532 53.4135 62.092C53.4135 62.468 53.3135 62.812 53.1135 63.124C52.9215 63.428 52.6375 63.672 52.2615 63.856C51.8935 64.032 51.4455 64.12 50.9175 64.12Z" fill="#64748B"/>
<path d="M57.4285 64.12C56.9965 64.12 56.6405 64.056 56.3605 63.928C56.0805 63.8 55.8605 63.632 55.7005 63.424C55.5485 63.216 55.4405 62.988 55.3765 62.74C55.3125 62.492 55.2805 62.248 55.2805 62.008V58.924H54.1885V57.64H55.2805V56.056H56.8765V57.64H58.3045V58.924H56.8765V61.972C56.8765 62.54 57.1965 62.824 57.8365 62.824C57.9885 62.824 58.1285 62.816 58.2565 62.8C58.3925 62.776 58.4605 62.764 58.4605 62.764V64.012C58.4605 64.012 58.3565 64.028 58.1485 64.06C57.9485 64.1 57.7085 64.12 57.4285 64.12Z" fill="#64748B"/>
<path d="M60.7236 56.656C60.4436 56.656 60.2116 56.564 60.0276 56.38C59.8516 56.196 59.7636 55.976 59.7636 55.72C59.7636 55.464 59.8516 55.244 60.0276 55.06C60.2116 54.876 60.4436 54.784 60.7236 54.784C61.0036 54.784 61.2356 54.876 61.4196 55.06C61.6036 55.244 61.6956 55.464 61.6956 55.72C61.6956 55.976 61.6036 56.196 61.4196 56.38C61.2356 56.564 61.0036 56.656 60.7236 56.656ZM59.9316 64V57.64H61.5276V64H59.9316Z" fill="#64748B"/>
<path d="M66.3535 64.12C65.6575 64.12 65.0655 63.964 64.5775 63.652C64.0895 63.34 63.7175 62.936 63.4615 62.44C63.2135 61.936 63.0895 61.396 63.0895 60.82C63.0895 60.244 63.2135 59.708 63.4615 59.212C63.7175 58.708 64.0895 58.3 64.5775 57.988C65.0655 57.676 65.6575 57.52 66.3535 57.52C67.0575 57.52 67.6495 57.676 68.1295 57.988C68.6175 58.3 68.9855 58.708 69.2335 59.212C69.4895 59.708 69.6175 60.244 69.6175 60.82C69.6175 61.396 69.4895 61.936 69.2335 62.44C68.9855 62.936 68.6175 63.34 68.1295 63.652C67.6495 63.964 67.0575 64.12 66.3535 64.12ZM66.3535 62.788C66.7135 62.788 67.0135 62.696 67.2535 62.512C67.5015 62.328 67.6895 62.088 67.8175 61.792C67.9455 61.488 68.0095 61.164 68.0095 60.82C68.0095 60.468 67.9455 60.144 67.8175 59.848C67.6895 59.552 67.5015 59.312 67.2535 59.128C67.0135 58.944 66.7135 58.852 66.3535 58.852C66.0015 58.852 65.7015 58.944 65.4535 59.128C65.2055 59.312 65.0175 59.552 64.8895 59.848C64.7615 60.144 64.6975 60.468 64.6975 60.82C64.6975 61.164 64.7615 61.488 64.8895 61.792C65.0175 62.088 65.2055 62.328 65.4535 62.512C65.7015 62.696 66.0015 62.788 66.3535 62.788Z" fill="#64748B"/>
<path d="M70.9667 64V57.64H72.5627V58.552H72.6347C72.6987 58.44 72.7987 58.304 72.9347 58.144C73.0707 57.976 73.2587 57.832 73.4987 57.712C73.7387 57.584 74.0427 57.52 74.4107 57.52C74.8987 57.52 75.2987 57.632 75.6107 57.856C75.9307 58.072 76.1667 58.36 76.3187 58.72C76.4787 59.08 76.5587 59.468 76.5587 59.884V64H74.9627V60.1C74.9627 59.756 74.8667 59.46 74.6747 59.212C74.4827 58.964 74.1947 58.84 73.8107 58.84C73.5147 58.84 73.2747 58.916 73.0907 59.068C72.9067 59.212 72.7707 59.4 72.6827 59.632C72.6027 59.864 72.5627 60.108 72.5627 60.364V64H70.9667Z" fill="#64748B"/>
<path d="M80.6129 64.12C80.0929 64.12 79.6649 64.052 79.3289 63.916C78.9929 63.772 78.7249 63.596 78.5249 63.388C78.3329 63.172 78.1889 62.96 78.0929 62.752C77.9969 62.544 77.9329 62.372 77.9009 62.236C77.8769 62.092 77.8649 62.02 77.8649 62.02H79.3769C79.3769 62.02 79.3889 62.064 79.4129 62.152C79.4449 62.24 79.5009 62.344 79.5809 62.464C79.6689 62.576 79.8009 62.676 79.9769 62.764C80.1529 62.852 80.3849 62.896 80.6729 62.896C81.0169 62.896 81.2649 62.824 81.4169 62.68C81.5689 62.528 81.6449 62.36 81.6449 62.176C81.6449 62 81.5769 61.86 81.4409 61.756C81.3129 61.644 81.1209 61.56 80.8649 61.504L79.9889 61.324C79.6369 61.252 79.3089 61.148 79.0049 61.012C78.7009 60.868 78.4529 60.676 78.2609 60.436C78.0689 60.188 77.9729 59.872 77.9729 59.488C77.9729 58.92 78.1889 58.452 78.6209 58.084C79.0529 57.708 79.6409 57.52 80.3849 57.52C80.8569 57.52 81.2449 57.584 81.5489 57.712C81.8609 57.84 82.1089 58 82.2929 58.192C82.4849 58.384 82.6249 58.576 82.7129 58.768C82.8089 58.96 82.8689 59.124 82.8929 59.26C82.9249 59.388 82.9409 59.452 82.9409 59.452H81.4769C81.4769 59.452 81.4649 59.416 81.4409 59.344C81.4169 59.264 81.3649 59.176 81.2849 59.08C81.2129 58.984 81.1009 58.9 80.9489 58.828C80.8049 58.748 80.6089 58.708 80.3609 58.708C80.0249 58.708 79.7849 58.78 79.6409 58.924C79.5049 59.068 79.4369 59.22 79.4369 59.38C79.4369 59.556 79.5129 59.692 79.6649 59.788C79.8169 59.884 80.0129 59.956 80.2529 60.004L81.0809 60.184C81.6729 60.304 82.1569 60.512 82.5329 60.808C82.9169 61.104 83.1089 61.532 83.1089 62.092C83.1089 62.468 83.0089 62.812 82.8089 63.124C82.6169 63.428 82.3329 63.672 81.9569 63.856C81.5889 64.032 81.1409 64.12 80.6129 64.12Z" fill="#64748B"/>
<path d="M86.3946 64.84H98.3946V52.84H86.3946V64.84Z" fill="#64748B"/>
<path d="M10.9601 94V85.12H12.1361V89.128L15.9761 85.132H17.5121L13.3601 89.392L17.6921 94H16.1081L12.1361 89.764V94H10.9601Z" fill="#0F172A"/>
<path d="M18.9846 94V87.64H20.1246V88.564H20.1966C20.2526 88.468 20.3446 88.336 20.4726 88.168C20.6086 88 20.8006 87.852 21.0486 87.724C21.2966 87.588 21.6086 87.52 21.9846 87.52C22.4486 87.52 22.8446 87.628 23.1726 87.844C23.5006 88.052 23.7486 88.336 23.9166 88.696C24.0926 89.056 24.1806 89.46 24.1806 89.908V94H23.0406V89.98C23.0406 89.556 22.9206 89.204 22.6806 88.924C22.4486 88.644 22.1086 88.504 21.6606 88.504C21.3006 88.504 21.0086 88.596 20.7846 88.78C20.5606 88.956 20.3926 89.192 20.2806 89.488C20.1766 89.776 20.1246 90.084 20.1246 90.412V94H18.9846Z" fill="#0F172A"/>
<path d="M28.8755 94.12C28.1955 94.12 27.6235 93.964 27.1595 93.652C26.6955 93.332 26.3435 92.92 26.1035 92.416C25.8635 91.912 25.7435 91.38 25.7435 90.82C25.7435 90.252 25.8635 89.72 26.1035 89.224C26.3435 88.72 26.6955 88.312 27.1595 88C27.6235 87.68 28.1955 87.52 28.8755 87.52C29.5555 87.52 30.1275 87.68 30.5915 88C31.0555 88.312 31.4075 88.72 31.6475 89.224C31.8875 89.72 32.0075 90.252 32.0075 90.82C32.0075 91.38 31.8875 91.912 31.6475 92.416C31.4075 92.92 31.0555 93.332 30.5915 93.652C30.1275 93.964 29.5555 94.12 28.8755 94.12ZM28.8755 93.124C29.3075 93.124 29.6675 93.016 29.9555 92.8C30.2515 92.576 30.4715 92.288 30.6155 91.936C30.7675 91.584 30.8435 91.212 30.8435 90.82C30.8435 90.42 30.7675 90.048 30.6155 89.704C30.4715 89.352 30.2515 89.068 29.9555 88.852C29.6675 88.628 29.3075 88.516 28.8755 88.516C28.4515 88.516 28.0915 88.628 27.7955 88.852C27.4995 89.068 27.2755 89.352 27.1235 89.704C26.9795 90.048 26.9075 90.42 26.9075 90.82C26.9075 91.212 26.9795 91.584 27.1235 91.936C27.2755 92.288 27.4995 92.576 27.7955 92.8C28.0915 93.016 28.4515 93.124 28.8755 93.124Z" fill="#0F172A"/>
<path d="M34.9604 94L32.9084 87.64H34.0724L35.5844 92.464L37.1684 87.64H38.2484L39.8204 92.464L41.3444 87.64H42.5084L40.4444 94H39.2204L37.7084 89.308L36.1964 94H34.9604Z" fill="#0F172A"/>
<path d="M43.8898 94L43.9018 84.88H45.0298V94H43.8898Z" fill="#0F172A"/>
<path d="M49.7204 94.12C49.2004 94.12 48.7484 94.028 48.3644 93.844C47.9884 93.652 47.6764 93.396 47.4284 93.076C47.1884 92.756 47.0084 92.404 46.8884 92.02C46.7684 91.628 46.7084 91.228 46.7084 90.82C46.7084 90.42 46.7644 90.024 46.8764 89.632C46.9964 89.24 47.1764 88.884 47.4164 88.564C47.6644 88.244 47.9724 87.992 48.3404 87.808C48.7164 87.616 49.1604 87.52 49.6724 87.52C50.2164 87.52 50.6964 87.644 51.1124 87.892C51.5284 88.14 51.8564 88.508 52.0964 88.996C52.3364 89.484 52.4564 90.096 52.4564 90.832V91.168H47.8604C47.8844 91.528 47.9684 91.86 48.1124 92.164C48.2644 92.46 48.4764 92.7 48.7484 92.884C49.0204 93.06 49.3444 93.148 49.7204 93.148C50.0484 93.148 50.3124 93.096 50.5124 92.992C50.7204 92.88 50.8844 92.752 51.0044 92.608C51.1244 92.464 51.2044 92.34 51.2444 92.236C51.2924 92.124 51.3164 92.068 51.3164 92.068H52.3844C52.3844 92.068 52.3644 92.14 52.3244 92.284C52.2844 92.42 52.2124 92.588 52.1084 92.788C52.0044 92.988 51.8524 93.192 51.6524 93.4C51.4524 93.6 51.1964 93.772 50.8844 93.916C50.5724 94.052 50.1844 94.12 49.7204 94.12ZM47.8724 90.28H51.3404C51.3244 89.864 51.2364 89.528 51.0764 89.272C50.9164 89.008 50.7124 88.812 50.4644 88.684C50.2164 88.556 49.9524 88.492 49.6724 88.492C49.1684 88.492 48.7564 88.656 48.4364 88.984C48.1164 89.304 47.9284 89.736 47.8724 90.28Z" fill="#0F172A"/>
<path d="M56.7134 94.12C56.2334 94.12 55.8134 94.028 55.4534 93.844C55.0934 93.652 54.7934 93.4 54.5534 93.088C54.3134 92.768 54.1334 92.412 54.0134 92.02C53.8934 91.628 53.8334 91.228 53.8334 90.82C53.8334 90.412 53.8934 90.012 54.0134 89.62C54.1334 89.228 54.3134 88.876 54.5534 88.564C54.7934 88.244 55.0934 87.992 55.4534 87.808C55.8134 87.616 56.2334 87.52 56.7134 87.52C57.1134 87.52 57.4494 87.584 57.7214 87.712C57.9934 87.84 58.2134 87.992 58.3814 88.168C58.5494 88.336 58.6774 88.496 58.7654 88.648H58.8374V84.88H59.9774V94H58.8374V92.992H58.7654C58.6774 93.144 58.5494 93.308 58.3814 93.484C58.2134 93.66 57.9934 93.812 57.7214 93.94C57.4494 94.06 57.1134 94.12 56.7134 94.12ZM56.9054 93.148C57.3294 93.148 57.6814 93.036 57.9614 92.812C58.2494 92.58 58.4614 92.288 58.5974 91.936C58.7414 91.576 58.8134 91.204 58.8134 90.82C58.8134 90.428 58.7414 90.056 58.5974 89.704C58.4614 89.352 58.2494 89.064 57.9614 88.84C57.6814 88.608 57.3294 88.492 56.9054 88.492C56.4814 88.492 56.1254 88.608 55.8374 88.84C55.5494 89.064 55.3334 89.352 55.1894 89.704C55.0534 90.056 54.9854 90.428 54.9854 90.82C54.9854 91.204 55.0534 91.576 55.1894 91.936C55.3334 92.288 55.5494 92.58 55.8374 92.812C56.1254 93.036 56.4814 93.148 56.9054 93.148Z" fill="#0F172A"/>
<path d="M64.8415 96.52C64.3135 96.52 63.8735 96.448 63.5215 96.304C63.1695 96.168 62.8855 95.992 62.6695 95.776C62.4615 95.568 62.3055 95.36 62.2015 95.152C62.0975 94.944 62.0295 94.768 61.9975 94.624C61.9655 94.488 61.9495 94.42 61.9495 94.42H63.0895C63.0895 94.42 63.1095 94.476 63.1495 94.588C63.1895 94.7 63.2655 94.828 63.3775 94.972C63.4975 95.116 63.6735 95.244 63.9055 95.356C64.1375 95.468 64.4495 95.524 64.8415 95.524C65.3055 95.524 65.6695 95.432 65.9335 95.248C66.1975 95.072 66.3855 94.84 66.4975 94.552C66.6175 94.264 66.6775 93.96 66.6775 93.64V92.908H66.6175C66.5375 93.044 66.4095 93.2 66.2335 93.376C66.0655 93.544 65.8415 93.692 65.5615 93.82C65.2815 93.94 64.9375 94 64.5295 94C64.0495 94 63.6295 93.908 63.2695 93.724C62.9095 93.54 62.6095 93.292 62.3695 92.98C62.1375 92.668 61.9615 92.32 61.8415 91.936C61.7215 91.552 61.6615 91.16 61.6615 90.76C61.6615 90.36 61.7215 89.968 61.8415 89.584C61.9615 89.2 62.1375 88.852 62.3695 88.54C62.6095 88.228 62.9095 87.98 63.2695 87.796C63.6295 87.612 64.0495 87.52 64.5295 87.52C64.9375 87.52 65.2815 87.584 65.5615 87.712C65.8415 87.832 66.0655 87.976 66.2335 88.144C66.4095 88.312 66.5375 88.468 66.6175 88.612H66.6775V87.64H67.8175V93.628C67.8175 94.516 67.5575 95.22 67.0375 95.74C66.5255 96.26 65.7935 96.52 64.8415 96.52ZM64.7455 93.028C65.1695 93.028 65.5215 92.92 65.8015 92.704C66.0895 92.48 66.3015 92.196 66.4375 91.852C66.5815 91.508 66.6535 91.144 66.6535 90.76C66.6535 90.376 66.5815 90.012 66.4375 89.668C66.3015 89.316 66.0895 89.032 65.8015 88.816C65.5215 88.6 65.1695 88.492 64.7455 88.492C64.3215 88.492 63.9655 88.6 63.6775 88.816C63.3895 89.032 63.1735 89.316 63.0295 89.668C62.8935 90.012 62.8255 90.376 62.8255 90.76C62.8255 91.144 62.8935 91.508 63.0295 91.852C63.1735 92.196 63.3895 92.48 63.6775 92.704C63.9655 92.92 64.3215 93.028 64.7455 93.028Z" fill="#0F172A"/>
<path d="M72.15 94.12C71.63 94.12 71.178 94.028 70.794 93.844C70.418 93.652 70.106 93.396 69.858 93.076C69.618 92.756 69.438 92.404 69.318 92.02C69.198 91.628 69.138 91.228 69.138 90.82C69.138 90.42 69.194 90.024 69.306 89.632C69.426 89.24 69.606 88.884 69.846 88.564C70.094 88.244 70.402 87.992 70.77 87.808C71.146 87.616 71.59 87.52 72.102 87.52C72.646 87.52 73.126 87.644 73.542 87.892C73.958 88.14 74.286 88.508 74.526 88.996C74.766 89.484 74.886 90.096 74.886 90.832V91.168H70.29C70.314 91.528 70.398 91.86 70.542 92.164C70.694 92.46 70.906 92.7 71.178 92.884C71.45 93.06 71.774 93.148 72.15 93.148C72.478 93.148 72.742 93.096 72.942 92.992C73.15 92.88 73.314 92.752 73.434 92.608C73.554 92.464 73.634 92.34 73.674 92.236C73.722 92.124 73.746 92.068 73.746 92.068H74.814C74.814 92.068 74.794 92.14 74.754 92.284C74.714 92.42 74.642 92.588 74.538 92.788C74.434 92.988 74.282 93.192 74.082 93.4C73.882 93.6 73.626 93.772 73.314 93.916C73.002 94.052 72.614 94.12 72.15 94.12ZM70.302 90.28H73.77C73.754 89.864 73.666 89.528 73.506 89.272C73.346 89.008 73.142 88.812 72.894 88.684C72.646 88.556 72.382 88.492 72.102 88.492C71.598 88.492 71.186 88.656 70.866 88.984C70.546 89.304 70.358 89.736 70.302 90.28Z" fill="#0F172A"/>
<path d="M76.5616 94V85.12H77.6176L82.2496 91.876V85.12H83.4256V94H82.3696L77.7376 87.256V94H76.5616Z" fill="#0F172A"/>
<path d="M88.1227 94.12C87.6027 94.12 87.1507 94.028 86.7667 93.844C86.3907 93.652 86.0787 93.396 85.8307 93.076C85.5907 92.756 85.4107 92.404 85.2907 92.02C85.1707 91.628 85.1107 91.228 85.1107 90.82C85.1107 90.42 85.1667 90.024 85.2787 89.632C85.3987 89.24 85.5787 88.884 85.8187 88.564C86.0667 88.244 86.3747 87.992 86.7427 87.808C87.1187 87.616 87.5627 87.52 88.0747 87.52C88.6187 87.52 89.0987 87.644 89.5147 87.892C89.9307 88.14 90.2587 88.508 90.4987 88.996C90.7387 89.484 90.8587 90.096 90.8587 90.832V91.168H86.2627C86.2867 91.528 86.3707 91.86 86.5147 92.164C86.6667 92.46 86.8787 92.7 87.1507 92.884C87.4227 93.06 87.7467 93.148 88.1227 93.148C88.4507 93.148 88.7147 93.096 88.9147 92.992C89.1227 92.88 89.2867 92.752 89.4067 92.608C89.5267 92.464 89.6067 92.34 89.6467 92.236C89.6947 92.124 89.7187 92.068 89.7187 92.068H90.7867C90.7867 92.068 90.7667 92.14 90.7267 92.284C90.6867 92.42 90.6147 92.588 90.5107 92.788C90.4067 92.988 90.2547 93.192 90.0547 93.4C89.8547 93.6 89.5987 93.772 89.2867 93.916C88.9747 94.052 88.5867 94.12 88.1227 94.12ZM86.2747 90.28H89.7427C89.7267 89.864 89.6387 89.528 89.4787 89.272C89.3187 89.008 89.1147 88.812 88.8667 88.684C88.6187 88.556 88.3547 88.492 88.0747 88.492C87.5707 88.492 87.1587 88.656 86.8387 88.984C86.5187 89.304 86.3307 89.736 86.2747 90.28Z" fill="#0F172A"/>
<path d="M94.7423 94.12C94.2543 94.12 93.8503 94.052 93.5303 93.916C93.2183 93.78 92.9703 93.612 92.7863 93.412C92.6023 93.204 92.4663 93 92.3783 92.8C92.2903 92.592 92.2343 92.42 92.2103 92.284C92.1863 92.148 92.1743 92.08 92.1743 92.08H93.3263C93.3263 92.08 93.3383 92.136 93.3623 92.248C93.3943 92.352 93.4543 92.476 93.5423 92.62C93.6383 92.756 93.7823 92.88 93.9743 92.992C94.1743 93.096 94.4383 93.148 94.7663 93.148C95.1423 93.148 95.4343 93.06 95.6423 92.884C95.8503 92.7 95.9543 92.476 95.9543 92.212C95.9543 91.98 95.8703 91.796 95.7023 91.66C95.5423 91.524 95.3103 91.42 95.0063 91.348L94.1423 91.144C93.8223 91.064 93.5223 90.956 93.2423 90.82C92.9623 90.684 92.7343 90.5 92.5583 90.268C92.3903 90.028 92.3063 89.732 92.3063 89.38C92.3063 88.836 92.5103 88.392 92.9183 88.048C93.3263 87.696 93.8583 87.52 94.5143 87.52C94.9543 87.52 95.3183 87.584 95.6063 87.712C95.8943 87.832 96.1223 87.984 96.2903 88.168C96.4663 88.352 96.5943 88.536 96.6743 88.72C96.7623 88.904 96.8183 89.06 96.8423 89.188C96.8663 89.308 96.8783 89.368 96.8783 89.368H95.7743C95.7743 89.368 95.7623 89.324 95.7383 89.236C95.7143 89.14 95.6583 89.036 95.5703 88.924C95.4903 88.804 95.3663 88.7 95.1983 88.612C95.0303 88.516 94.8063 88.468 94.5263 88.468C94.1423 88.468 93.8623 88.556 93.6863 88.732C93.5103 88.908 93.4223 89.1 93.4223 89.308C93.4223 89.508 93.5023 89.672 93.6623 89.8C93.8303 89.92 94.0463 90.012 94.3103 90.076L95.1863 90.28C95.7303 90.408 96.1783 90.62 96.5303 90.916C96.8903 91.204 97.0703 91.62 97.0703 92.164C97.0703 92.516 96.9783 92.844 96.7943 93.148C96.6103 93.444 96.3463 93.68 96.0023 93.856C95.6583 94.032 95.2383 94.12 94.7423 94.12Z" fill="#0F172A"/>
<path d="M101.091 94.12C100.435 94.12 99.9389 93.952 99.6029 93.616C99.2749 93.28 99.1109 92.808 99.1109 92.2V88.576H97.9709V87.64H99.1109V86.044H100.251V87.64H101.799V88.576H100.251V92.2C100.251 92.52 100.339 92.756 100.515 92.908C100.691 93.052 100.947 93.124 101.283 93.124C101.459 93.124 101.627 93.112 101.787 93.088C101.947 93.064 102.027 93.052 102.027 93.052V94.024C102.027 94.024 101.935 94.04 101.751 94.072C101.567 94.104 101.347 94.12 101.091 94.12Z" fill="#0F172A"/>
<path d="M13.9361 119.12C13.4241 119.12 12.9841 119.056 12.6161 118.928C12.2561 118.792 11.9561 118.62 11.7161 118.412C11.4761 118.196 11.2841 117.972 11.1401 117.74C10.9961 117.508 10.8881 117.288 10.8161 117.08C10.7441 116.864 10.6961 116.692 10.6721 116.564C10.6561 116.428 10.6481 116.36 10.6481 116.36H11.8481C11.8481 116.36 11.8601 116.416 11.8841 116.528C11.9081 116.64 11.9561 116.78 12.0281 116.948C12.1081 117.116 12.2241 117.288 12.3761 117.464C12.5281 117.632 12.7321 117.772 12.9881 117.884C13.2441 117.996 13.5681 118.052 13.9601 118.052C14.5521 118.052 15.0201 117.912 15.3641 117.632C15.7081 117.344 15.8801 116.972 15.8801 116.516C15.8801 116.124 15.7481 115.82 15.4841 115.604C15.2281 115.388 14.8601 115.22 14.3801 115.1L13.2041 114.812C12.7881 114.708 12.4001 114.564 12.0401 114.38C11.6881 114.188 11.4041 113.94 11.1881 113.636C10.9801 113.324 10.8761 112.936 10.8761 112.472C10.8761 111.952 11.0041 111.508 11.2601 111.14C11.5161 110.772 11.8641 110.492 12.3041 110.3C12.7441 110.1 13.2441 110 13.8041 110C14.3481 110 14.8001 110.084 15.1601 110.252C15.5201 110.42 15.8081 110.628 16.0241 110.876C16.2401 111.116 16.4001 111.36 16.5041 111.608C16.6081 111.848 16.6761 112.052 16.7081 112.22C16.7401 112.388 16.7561 112.472 16.7561 112.472H15.6041C15.6041 112.472 15.5881 112.4 15.5561 112.256C15.5241 112.112 15.4481 111.948 15.3281 111.764C15.2081 111.572 15.0241 111.404 14.7761 111.26C14.5281 111.116 14.1921 111.044 13.7681 111.044C13.1921 111.044 12.7561 111.18 12.4601 111.452C12.1721 111.724 12.0281 112.036 12.0281 112.388C12.0281 112.708 12.1441 112.968 12.3761 113.168C12.6081 113.36 12.9281 113.508 13.3361 113.612L14.6081 113.924C15.0641 114.036 15.4761 114.2 15.8441 114.416C16.2121 114.624 16.5041 114.896 16.7201 115.232C16.9361 115.56 17.0441 115.964 17.0441 116.444C17.0441 116.924 16.9241 117.368 16.6841 117.776C16.4521 118.184 16.1041 118.512 15.6401 118.76C15.1841 119 14.6161 119.12 13.9361 119.12Z" fill="#0F172A"/>
<path d="M18.5773 119V109.88H19.7173V113.564H19.7893C19.8453 113.468 19.9373 113.336 20.0653 113.168C20.2013 113 20.3933 112.852 20.6413 112.724C20.8893 112.588 21.2013 112.52 21.5773 112.52C22.0413 112.52 22.4373 112.628 22.7653 112.844C23.0933 113.052 23.3413 113.336 23.5093 113.696C23.6853 114.056 23.7733 114.46 23.7733 114.908V119H22.6333V114.98C22.6333 114.556 22.5133 114.204 22.2733 113.924C22.0413 113.644 21.7013 113.504 21.2533 113.504C20.8933 113.504 20.6013 113.596 20.3773 113.78C20.1533 113.956 19.9853 114.192 19.8733 114.488C19.7693 114.776 19.7173 115.084 19.7173 115.412V119H18.5773Z" fill="#0F172A"/>
<path d="M28.4654 119.12C27.7854 119.12 27.2134 118.964 26.7494 118.652C26.2854 118.332 25.9334 117.92 25.6934 117.416C25.4534 116.912 25.3334 116.38 25.3334 115.82C25.3334 115.252 25.4534 114.72 25.6934 114.224C25.9334 113.72 26.2854 113.312 26.7494 113C27.2134 112.68 27.7854 112.52 28.4654 112.52C29.1454 112.52 29.7174 112.68 30.1814 113C30.6454 113.312 30.9974 113.72 31.2374 114.224C31.4774 114.72 31.5974 115.252 31.5974 115.82C31.5974 116.38 31.4774 116.912 31.2374 117.416C30.9974 117.92 30.6454 118.332 30.1814 118.652C29.7174 118.964 29.1454 119.12 28.4654 119.12ZM28.4654 118.124C28.8974 118.124 29.2574 118.016 29.5454 117.8C29.8414 117.576 30.0614 117.288 30.2054 116.936C30.3574 116.584 30.4334 116.212 30.4334 115.82C30.4334 115.42 30.3574 115.048 30.2054 114.704C30.0614 114.352 29.8414 114.068 29.5454 113.852C29.2574 113.628 28.8974 113.516 28.4654 113.516C28.0414 113.516 27.6814 113.628 27.3854 113.852C27.0894 114.068 26.8654 114.352 26.7134 114.704C26.5694 115.048 26.4974 115.42 26.4974 115.82C26.4974 116.212 26.5694 116.584 26.7134 116.936C26.8654 117.288 27.0894 117.576 27.3854 117.8C27.6814 118.016 28.0414 118.124 28.4654 118.124Z" fill="#0F172A"/>
<path d="M33.2726 121.352V112.64H34.4126V113.648H34.4846C34.5806 113.496 34.7086 113.332 34.8686 113.156C35.0366 112.98 35.2566 112.832 35.5286 112.712C35.8006 112.584 36.1366 112.52 36.5366 112.52C37.0166 112.52 37.4366 112.616 37.7966 112.808C38.1566 112.992 38.4566 113.244 38.6966 113.564C38.9366 113.876 39.1166 114.228 39.2366 114.62C39.3566 115.012 39.4166 115.412 39.4166 115.82C39.4166 116.228 39.3566 116.628 39.2366 117.02C39.1166 117.412 38.9366 117.768 38.6966 118.088C38.4566 118.4 38.1566 118.652 37.7966 118.844C37.4366 119.028 37.0166 119.12 36.5366 119.12C36.1366 119.12 35.8006 119.056 35.5286 118.928C35.2566 118.8 35.0366 118.648 34.8686 118.472C34.7086 118.296 34.5806 118.136 34.4846 117.992H34.4126V121.352H33.2726ZM34.4366 115.82C34.4366 116.204 34.5046 116.576 34.6406 116.936C34.7846 117.288 34.9966 117.58 35.2766 117.812C35.5646 118.036 35.9206 118.148 36.3446 118.148C36.7766 118.148 37.1326 118.036 37.4126 117.812C37.7006 117.58 37.9126 117.288 38.0486 116.936C38.1926 116.576 38.2646 116.204 38.2646 115.82C38.2646 115.428 38.1926 115.056 38.0486 114.704C37.9126 114.352 37.7006 114.064 37.4126 113.84C37.1326 113.608 36.7766 113.492 36.3446 113.492C35.9206 113.492 35.5646 113.608 35.2766 113.84C34.9966 114.064 34.7846 114.352 34.6406 114.704C34.5046 115.056 34.4366 115.428 34.4366 115.82Z" fill="#0F172A"/>
<path d="M44.0767 119.12C43.5647 119.12 43.1247 119.056 42.7567 118.928C42.3967 118.792 42.0967 118.62 41.8567 118.412C41.6167 118.196 41.4247 117.972 41.2807 117.74C41.1367 117.508 41.0287 117.288 40.9567 117.08C40.8847 116.864 40.8367 116.692 40.8127 116.564C40.7967 116.428 40.7887 116.36 40.7887 116.36H41.9887C41.9887 116.36 42.0007 116.416 42.0247 116.528C42.0487 116.64 42.0967 116.78 42.1687 116.948C42.2487 117.116 42.3647 117.288 42.5167 117.464C42.6687 117.632 42.8727 117.772 43.1287 117.884C43.3847 117.996 43.7087 118.052 44.1007 118.052C44.6927 118.052 45.1607 117.912 45.5047 117.632C45.8487 117.344 46.0207 116.972 46.0207 116.516C46.0207 116.124 45.8887 115.82 45.6247 115.604C45.3687 115.388 45.0007 115.22 44.5207 115.1L43.3447 114.812C42.9287 114.708 42.5407 114.564 42.1807 114.38C41.8287 114.188 41.5447 113.94 41.3287 113.636C41.1207 113.324 41.0167 112.936 41.0167 112.472C41.0167 111.952 41.1447 111.508 41.4007 111.14C41.6567 110.772 42.0047 110.492 42.4447 110.3C42.8847 110.1 43.3847 110 43.9447 110C44.4887 110 44.9407 110.084 45.3007 110.252C45.6607 110.42 45.9487 110.628 46.1647 110.876C46.3807 111.116 46.5407 111.36 46.6447 111.608C46.7487 111.848 46.8167 112.052 46.8487 112.22C46.8807 112.388 46.8967 112.472 46.8967 112.472H45.7447C45.7447 112.472 45.7287 112.4 45.6967 112.256C45.6647 112.112 45.5887 111.948 45.4687 111.764C45.3487 111.572 45.1647 111.404 44.9167 111.26C44.6687 111.116 44.3327 111.044 43.9087 111.044C43.3327 111.044 42.8967 111.18 42.6007 111.452C42.3127 111.724 42.1687 112.036 42.1687 112.388C42.1687 112.708 42.2847 112.968 42.5167 113.168C42.7487 113.36 43.0687 113.508 43.4767 113.612L44.7487 113.924C45.2047 114.036 45.6167 114.2 45.9847 114.416C46.3527 114.624 46.6447 114.896 46.8607 115.232C47.0767 115.56 47.1847 115.964 47.1847 116.444C47.1847 116.924 47.0647 117.368 46.8247 117.776C46.5927 118.184 46.2447 118.512 45.7807 118.76C45.3247 119 44.7567 119.12 44.0767 119.12Z" fill="#0F172A"/>
<path d="M48.7179 121.352V112.64H49.8579V113.648H49.9299C50.0259 113.496 50.1539 113.332 50.3139 113.156C50.4819 112.98 50.7019 112.832 50.9739 112.712C51.2459 112.584 51.5819 112.52 51.9819 112.52C52.4619 112.52 52.8819 112.616 53.2419 112.808C53.6019 112.992 53.9019 113.244 54.1419 113.564C54.3819 113.876 54.5619 114.228 54.6819 114.62C54.8019 115.012 54.8619 115.412 54.8619 115.82C54.8619 116.228 54.8019 116.628 54.6819 117.02C54.5619 117.412 54.3819 117.768 54.1419 118.088C53.9019 118.4 53.6019 118.652 53.2419 118.844C52.8819 119.028 52.4619 119.12 51.9819 119.12C51.5819 119.12 51.2459 119.056 50.9739 118.928C50.7019 118.8 50.4819 118.648 50.3139 118.472C50.1539 118.296 50.0259 118.136 49.9299 117.992H49.8579V121.352H48.7179ZM49.8819 115.82C49.8819 116.204 49.9499 116.576 50.0859 116.936C50.2299 117.288 50.4419 117.58 50.7219 117.812C51.0099 118.036 51.3659 118.148 51.7899 118.148C52.2219 118.148 52.5779 118.036 52.8579 117.812C53.1459 117.58 53.3579 117.288 53.4939 116.936C53.6379 116.576 53.7099 116.204 53.7099 115.82C53.7099 115.428 53.6379 115.056 53.4939 114.704C53.3579 114.352 53.1459 114.064 52.8579 113.84C52.5779 113.608 52.2219 113.492 51.7899 113.492C51.3659 113.492 51.0099 113.608 50.7219 113.84C50.4419 114.064 50.2299 114.352 50.0859 114.704C49.9499 115.056 49.8819 115.428 49.8819 115.82Z" fill="#0F172A"/>
<path d="M56.546 119V109.88H57.686V113.564H57.758C57.814 113.468 57.906 113.336 58.034 113.168C58.17 113 58.362 112.852 58.61 112.724C58.858 112.588 59.17 112.52 59.546 112.52C60.01 112.52 60.406 112.628 60.734 112.844C61.062 113.052 61.31 113.336 61.478 113.696C61.654 114.056 61.742 114.46 61.742 114.908V119H60.602V114.98C60.602 114.556 60.482 114.204 60.242 113.924C60.01 113.644 59.67 113.504 59.222 113.504C58.862 113.504 58.57 113.596 58.346 113.78C58.122 113.956 57.954 114.192 57.842 114.488C57.738 114.776 57.686 115.084 57.686 115.412V119H56.546Z" fill="#0F172A"/>
<path d="M66.3141 119.12C65.7941 119.12 65.3421 119.028 64.9581 118.844C64.5821 118.652 64.2701 118.396 64.0221 118.076C63.7821 117.756 63.6021 117.404 63.4821 117.02C63.3621 116.628 63.3021 116.228 63.3021 115.82C63.3021 115.42 63.3581 115.024 63.4701 114.632C63.5901 114.24 63.7701 113.884 64.0101 113.564C64.2581 113.244 64.5661 112.992 64.9341 112.808C65.3101 112.616 65.7541 112.52 66.2661 112.52C66.8101 112.52 67.2901 112.644 67.7061 112.892C68.1221 113.14 68.4501 113.508 68.6901 113.996C68.9301 114.484 69.0501 115.096 69.0501 115.832V116.168H64.4541C64.4781 116.528 64.5621 116.86 64.7061 117.164C64.8581 117.46 65.0701 117.7 65.3421 117.884C65.6141 118.06 65.9381 118.148 66.3141 118.148C66.6421 118.148 66.9061 118.096 67.1061 117.992C67.3141 117.88 67.4781 117.752 67.5981 117.608C67.7181 117.464 67.7981 117.34 67.8381 117.236C67.8861 117.124 67.9101 117.068 67.9101 117.068H68.9781C68.9781 117.068 68.9581 117.14 68.9181 117.284C68.8781 117.42 68.8061 117.588 68.7021 117.788C68.5981 117.988 68.4461 118.192 68.2461 118.4C68.0461 118.6 67.7901 118.772 67.4781 118.916C67.1661 119.052 66.7781 119.12 66.3141 119.12ZM64.4661 115.28H67.9341C67.9181 114.864 67.8301 114.528 67.6701 114.272C67.5101 114.008 67.3061 113.812 67.0581 113.684C66.8101 113.556 66.5461 113.492 66.2661 113.492C65.7621 113.492 65.3501 113.656 65.0301 113.984C64.7101 114.304 64.5221 114.736 64.4661 115.28Z" fill="#0F172A"/>
<path d="M70.6057 119V112.64H71.7457V113.432H71.7937C71.9297 113.192 72.1297 112.98 72.3937 112.796C72.6577 112.612 73.0297 112.52 73.5097 112.52C73.6457 112.52 73.7697 112.528 73.8817 112.544C73.9937 112.552 74.0497 112.556 74.0497 112.556V113.648C74.0497 113.648 73.9857 113.644 73.8577 113.636C73.7377 113.62 73.6097 113.612 73.4737 113.612C72.9217 113.612 72.4937 113.772 72.1897 114.092C71.8937 114.404 71.7457 114.916 71.7457 115.628V119H70.6057Z" fill="#0F172A"/>
<path d="M77.7165 119.12C77.1965 119.12 76.7445 119.028 76.3605 118.844C75.9845 118.652 75.6725 118.396 75.4245 118.076C75.1845 117.756 75.0045 117.404 74.8845 117.02C74.7645 116.628 74.7045 116.228 74.7045 115.82C74.7045 115.42 74.7605 115.024 74.8725 114.632C74.9925 114.24 75.1725 113.884 75.4125 113.564C75.6605 113.244 75.9684 112.992 76.3364 112.808C76.7124 112.616 77.1564 112.52 77.6684 112.52C78.2124 112.52 78.6925 112.644 79.1085 112.892C79.5245 113.14 79.8525 113.508 80.0925 113.996C80.3325 114.484 80.4525 115.096 80.4525 115.832V116.168H75.8565C75.8805 116.528 75.9645 116.86 76.1085 117.164C76.2605 117.46 76.4725 117.7 76.7445 117.884C77.0165 118.06 77.3405 118.148 77.7165 118.148C78.0445 118.148 78.3085 118.096 78.5085 117.992C78.7165 117.88 78.8805 117.752 79.0005 117.608C79.1205 117.464 79.2004 117.34 79.2404 117.236C79.2884 117.124 79.3125 117.068 79.3125 117.068H80.3805C80.3805 117.068 80.3605 117.14 80.3204 117.284C80.2804 117.42 80.2085 117.588 80.1045 117.788C80.0005 117.988 79.8485 118.192 79.6485 118.4C79.4485 118.6 79.1925 118.772 78.8805 118.916C78.5685 119.052 78.1805 119.12 77.7165 119.12ZM75.8685 115.28H79.3364C79.3204 114.864 79.2324 114.528 79.0724 114.272C78.9124 114.008 78.7084 113.812 78.4604 113.684C78.2124 113.556 77.9484 113.492 77.6684 113.492C77.1644 113.492 76.7524 113.656 76.4324 113.984C76.1124 114.304 75.9245 114.736 75.8685 115.28Z" fill="#0F172A"/>
<path d="M84.8937 119V110.12H86.0697V117.968H90.6417V119H84.8937Z" fill="#0F172A"/>
<path d="M92.382 119V110.12H93.558V117.968H98.13V119H92.382Z" fill="#0F172A"/>
<path d="M99.8702 119V110.12H103.038C103.718 110.12 104.282 110.26 104.73 110.54C105.186 110.82 105.526 111.184 105.75 111.632C105.982 112.072 106.098 112.532 106.098 113.012C106.098 113.5 105.982 113.968 105.75 114.416C105.526 114.856 105.186 115.22 104.73 115.508C104.282 115.788 103.718 115.928 103.038 115.928H101.046V119H99.8702ZM103.038 111.152H101.046V114.896H103.038C103.462 114.896 103.814 114.804 104.094 114.62C104.374 114.436 104.582 114.204 104.718 113.924C104.862 113.636 104.934 113.336 104.934 113.024C104.934 112.712 104.862 112.412 104.718 112.124C104.582 111.836 104.374 111.604 104.094 111.428C103.814 111.244 103.462 111.152 103.038 111.152Z" fill="#0F172A"/>
<path d="M10.9601 144V135.12H12.1361V144H10.9601Z" fill="#0F172A"/>
<path d="M13.9338 144V137.64H15.0738V138.564H15.1458C15.2018 138.468 15.2938 138.336 15.4218 138.168C15.5578 138 15.7498 137.852 15.9978 137.724C16.2458 137.588 16.5578 137.52 16.9338 137.52C17.3978 137.52 17.7938 137.628 18.1218 137.844C18.4498 138.052 18.6978 138.336 18.8658 138.696C19.0418 139.056 19.1298 139.46 19.1298 139.908V144H17.9898V139.98C17.9898 139.556 17.8698 139.204 17.6298 138.924C17.3978 138.644 17.0578 138.504 16.6098 138.504C16.2498 138.504 15.9578 138.596 15.7338 138.78C15.5098 138.956 15.3418 139.192 15.2298 139.488C15.1258 139.776 15.0738 140.084 15.0738 140.412V144H13.9338Z" fill="#0F172A"/>
<path d="M21.5567 144V138.576H20.5127V137.64H21.5567V136.86C21.5567 136.524 21.6167 136.196 21.7367 135.876C21.8567 135.548 22.0567 135.28 22.3367 135.072C22.6167 134.864 22.9967 134.76 23.4767 134.76C23.7087 134.76 23.8927 134.78 24.0287 134.82C24.1727 134.852 24.2447 134.868 24.2447 134.868V135.768C24.2447 135.768 24.1807 135.756 24.0527 135.732C23.9327 135.7 23.7927 135.684 23.6327 135.684C23.2647 135.684 23.0167 135.796 22.8887 136.02C22.7607 136.244 22.6967 136.524 22.6967 136.86V137.64H24.1727V138.576H22.6967V144H21.5567Z" fill="#0F172A"/>
<path d="M28.0904 144.12C27.4104 144.12 26.8384 143.964 26.3744 143.652C25.9104 143.332 25.5584 142.92 25.3184 142.416C25.0784 141.912 24.9584 141.38 24.9584 140.82C24.9584 140.252 25.0784 139.72 25.3184 139.224C25.5584 138.72 25.9104 138.312 26.3744 138C26.8384 137.68 27.4104 137.52 28.0904 137.52C28.7704 137.52 29.3424 137.68 29.8064 138C30.2704 138.312 30.6224 138.72 30.8624 139.224C31.1024 139.72 31.2224 140.252 31.2224 140.82C31.2224 141.38 31.1024 141.912 30.8624 142.416C30.6224 142.92 30.2704 143.332 29.8064 143.652C29.3424 143.964 28.7704 144.12 28.0904 144.12ZM28.0904 143.124C28.5224 143.124 28.8824 143.016 29.1704 142.8C29.4664 142.576 29.6864 142.288 29.8304 141.936C29.9824 141.584 30.0584 141.212 30.0584 140.82C30.0584 140.42 29.9824 140.048 29.8304 139.704C29.6864 139.352 29.4664 139.068 29.1704 138.852C28.8824 138.628 28.5224 138.516 28.0904 138.516C27.6664 138.516 27.3064 138.628 27.0104 138.852C26.7144 139.068 26.4904 139.352 26.3384 139.704C26.1944 140.048 26.1224 140.42 26.1224 140.82C26.1224 141.212 26.1944 141.584 26.3384 141.936C26.4904 142.288 26.7144 142.576 27.0104 142.8C27.3064 143.016 27.6664 143.124 28.0904 143.124Z" fill="#0F172A"/>
<path d="M32.8976 144V135.12H38.7536V136.152H34.0736V139.08H38.2016V140.112H34.0736V144H32.8976Z" fill="#0F172A"/>
<path d="M42.4473 144.12C41.8153 144.12 41.3113 143.924 40.9353 143.532C40.5593 143.14 40.3713 142.596 40.3713 141.9V137.64H41.5113V141.84C41.5113 142.256 41.6233 142.576 41.8473 142.8C42.0793 143.024 42.3833 143.136 42.7593 143.136C43.1433 143.136 43.4513 143.036 43.6833 142.836C43.9153 142.636 44.0833 142.38 44.1873 142.068C44.2913 141.756 44.3433 141.436 44.3433 141.108V137.64H45.4833V144H44.3433V143.088H44.2713C44.2233 143.184 44.1313 143.316 43.9953 143.484C43.8593 143.644 43.6673 143.792 43.4193 143.928C43.1713 144.056 42.8473 144.12 42.4473 144.12Z" fill="#0F172A"/>
<path d="M49.4962 144.12C49.0082 144.12 48.6042 144.052 48.2842 143.916C47.9722 143.78 47.7242 143.612 47.5402 143.412C47.3562 143.204 47.2202 143 47.1322 142.8C47.0442 142.592 46.9882 142.42 46.9642 142.284C46.9402 142.148 46.9282 142.08 46.9282 142.08H48.0802C48.0802 142.08 48.0922 142.136 48.1162 142.248C48.1482 142.352 48.2082 142.476 48.2962 142.62C48.3922 142.756 48.5362 142.88 48.7282 142.992C48.9282 143.096 49.1922 143.148 49.5202 143.148C49.8962 143.148 50.1882 143.06 50.3962 142.884C50.6042 142.7 50.7082 142.476 50.7082 142.212C50.7082 141.98 50.6242 141.796 50.4562 141.66C50.2962 141.524 50.0642 141.42 49.7602 141.348L48.8962 141.144C48.5762 141.064 48.2762 140.956 47.9962 140.82C47.7162 140.684 47.4882 140.5 47.3122 140.268C47.1442 140.028 47.0602 139.732 47.0602 139.38C47.0602 138.836 47.2642 138.392 47.6722 138.048C48.0802 137.696 48.6122 137.52 49.2682 137.52C49.7082 137.52 50.0722 137.584 50.3602 137.712C50.6482 137.832 50.8762 137.984 51.0442 138.168C51.2202 138.352 51.3482 138.536 51.4282 138.72C51.5162 138.904 51.5722 139.06 51.5962 139.188C51.6202 139.308 51.6322 139.368 51.6322 139.368H50.5282C50.5282 139.368 50.5162 139.324 50.4922 139.236C50.4682 139.14 50.4122 139.036 50.3242 138.924C50.2442 138.804 50.1202 138.7 49.9522 138.612C49.7842 138.516 49.5602 138.468 49.2802 138.468C48.8962 138.468 48.6162 138.556 48.4402 138.732C48.2642 138.908 48.1762 139.1 48.1762 139.308C48.1762 139.508 48.2562 139.672 48.4162 139.8C48.5842 139.92 48.8002 140.012 49.0642 140.076L49.9402 140.28C50.4842 140.408 50.9322 140.62 51.2842 140.916C51.6442 141.204 51.8242 141.62 51.8242 142.164C51.8242 142.516 51.7322 142.844 51.5482 143.148C51.3642 143.444 51.1002 143.68 50.7562 143.856C50.4122 144.032 49.9922 144.12 49.4962 144.12Z" fill="#0F172A"/>
<path d="M54.006 136.428C53.79 136.428 53.61 136.356 53.466 136.212C53.3299 136.068 53.262 135.896 53.262 135.696C53.262 135.488 53.3299 135.312 53.466 135.168C53.61 135.024 53.79 134.952 54.006 134.952C54.214 134.952 54.39 135.024 54.534 135.168C54.678 135.312 54.75 135.488 54.75 135.696C54.75 135.896 54.678 136.068 54.534 136.212C54.39 136.356 54.214 136.428 54.006 136.428ZM53.442 144V137.64H54.582V144H53.442Z" fill="#0F172A"/>
<path d="M59.438 144.12C58.758 144.12 58.186 143.964 57.722 143.652C57.258 143.332 56.906 142.92 56.666 142.416C56.426 141.912 56.306 141.38 56.306 140.82C56.306 140.252 56.426 139.72 56.666 139.224C56.906 138.72 57.258 138.312 57.722 138C58.186 137.68 58.758 137.52 59.438 137.52C60.118 137.52 60.69 137.68 61.154 138C61.618 138.312 61.97 138.72 62.21 139.224C62.45 139.72 62.57 140.252 62.57 140.82C62.57 141.38 62.45 141.912 62.21 142.416C61.97 142.92 61.618 143.332 61.154 143.652C60.69 143.964 60.118 144.12 59.438 144.12ZM59.438 143.124C59.87 143.124 60.23 143.016 60.518 142.8C60.814 142.576 61.034 142.288 61.178 141.936C61.33 141.584 61.406 141.212 61.406 140.82C61.406 140.42 61.33 140.048 61.178 139.704C61.034 139.352 60.814 139.068 60.518 138.852C60.23 138.628 59.87 138.516 59.438 138.516C59.014 138.516 58.654 138.628 58.358 138.852C58.062 139.068 57.838 139.352 57.686 139.704C57.542 140.048 57.47 140.42 57.47 140.82C57.47 141.212 57.542 141.584 57.686 141.936C57.838 142.288 58.062 142.576 58.358 142.8C58.654 143.016 59.014 143.124 59.438 143.124Z" fill="#0F172A"/>
<path d="M64.1252 144V137.64H65.2652V138.564H65.3372C65.3932 138.468 65.4852 138.336 65.6132 138.168C65.7492 138 65.9412 137.852 66.1892 137.724C66.4372 137.588 66.7492 137.52 67.1252 137.52C67.5892 137.52 67.9852 137.628 68.3132 137.844C68.6412 138.052 68.8892 138.336 69.0572 138.696C69.2332 139.056 69.3212 139.46 69.3212 139.908V144H68.1812V139.98C68.1812 139.556 68.0612 139.204 67.8212 138.924C67.5892 138.644 67.2492 138.504 66.8012 138.504C66.4412 138.504 66.1492 138.596 65.9252 138.78C65.7012 138.956 65.5332 139.192 65.4212 139.488C65.3172 139.776 65.2652 140.084 65.2652 140.412V144H64.1252Z" fill="#0F172A"/>
<path d="M10.5401 169L13.6721 160.12H15.1481L18.2921 169H17.0441L16.3001 166.876H12.5321L11.7881 169H10.5401ZM12.8921 165.82H15.9401L14.4161 161.464L12.8921 165.82Z" fill="#0F172A"/>
<path d="M22.4536 169.12C21.9336 169.12 21.4776 169.028 21.0856 168.844C20.6936 168.652 20.3656 168.4 20.1016 168.088C19.8456 167.768 19.6496 167.412 19.5136 167.02C19.3856 166.628 19.3216 166.228 19.3216 165.82C19.3216 165.412 19.3856 165.016 19.5136 164.632C19.6416 164.24 19.8336 163.884 20.0896 163.564C20.3536 163.244 20.6816 162.992 21.0736 162.808C21.4656 162.616 21.9256 162.52 22.4536 162.52C22.9656 162.52 23.3896 162.596 23.7256 162.748C24.0616 162.9 24.3296 163.092 24.5296 163.324C24.7376 163.548 24.8896 163.776 24.9856 164.008C25.0896 164.232 25.1576 164.42 25.1896 164.572C25.2216 164.724 25.2376 164.8 25.2376 164.8H24.1336C24.1336 164.8 24.1136 164.736 24.0736 164.608C24.0336 164.472 23.9576 164.32 23.8456 164.152C23.7336 163.984 23.5656 163.836 23.3416 163.708C23.1176 163.572 22.8216 163.504 22.4536 163.504C22.0136 163.504 21.6416 163.616 21.3376 163.84C21.0416 164.056 20.8176 164.34 20.6656 164.692C20.5216 165.044 20.4496 165.42 20.4496 165.82C20.4496 166.22 20.5216 166.596 20.6656 166.948C20.8176 167.3 21.0416 167.588 21.3376 167.812C21.6416 168.028 22.0136 168.136 22.4536 168.136C22.8216 168.136 23.1176 168.072 23.3416 167.944C23.5656 167.808 23.7336 167.656 23.8456 167.488C23.9576 167.32 24.0336 167.172 24.0736 167.044C24.1136 166.908 24.1336 166.84 24.1336 166.84H25.2376C25.2376 166.84 25.2216 166.916 25.1896 167.068C25.1576 167.22 25.0896 167.412 24.9856 167.644C24.8896 167.868 24.7376 168.096 24.5296 168.328C24.3296 168.552 24.0616 168.74 23.7256 168.892C23.3896 169.044 22.9656 169.12 22.4536 169.12Z" fill="#0F172A"/>
<path d="M26.801 169V162.64H27.941V163.564H27.989C28.053 163.444 28.153 163.304 28.289 163.144C28.425 162.976 28.609 162.832 28.841 162.712C29.081 162.584 29.381 162.52 29.741 162.52C30.213 162.52 30.609 162.636 30.929 162.868C31.257 163.092 31.501 163.396 31.661 163.78H31.673C31.849 163.428 32.097 163.132 32.417 162.892C32.745 162.644 33.169 162.52 33.689 162.52C34.377 162.52 34.905 162.756 35.273 163.228C35.649 163.692 35.837 164.292 35.837 165.028V169H34.697V165.088C34.697 164.616 34.585 164.236 34.361 163.948C34.137 163.652 33.813 163.504 33.389 163.504C33.021 163.504 32.725 163.604 32.501 163.804C32.285 164.004 32.129 164.252 32.033 164.548C31.937 164.844 31.889 165.14 31.889 165.436V169H30.749V165.088C30.749 164.616 30.637 164.236 30.413 163.948C30.197 163.652 29.873 163.504 29.441 163.504C29.073 163.504 28.777 163.604 28.553 163.804C28.337 164.004 28.181 164.256 28.085 164.56C27.989 164.856 27.941 165.148 27.941 165.436V169H26.801Z" fill="#0F172A"/>
<path d="M40.404 169.12C39.884 169.12 39.432 169.028 39.048 168.844C38.672 168.652 38.36 168.396 38.112 168.076C37.872 167.756 37.692 167.404 37.572 167.02C37.452 166.628 37.392 166.228 37.392 165.82C37.392 165.42 37.448 165.024 37.56 164.632C37.68 164.24 37.86 163.884 38.1 163.564C38.348 163.244 38.656 162.992 39.024 162.808C39.4 162.616 39.844 162.52 40.356 162.52C40.9 162.52 41.38 162.644 41.796 162.892C42.212 163.14 42.54 163.508 42.78 163.996C43.02 164.484 43.1399 165.096 43.1399 165.832V166.168H38.544C38.568 166.528 38.652 166.86 38.796 167.164C38.948 167.46 39.16 167.7 39.432 167.884C39.704 168.06 40.028 168.148 40.404 168.148C40.732 168.148 40.996 168.096 41.196 167.992C41.404 167.88 41.568 167.752 41.688 167.608C41.808 167.464 41.888 167.34 41.928 167.236C41.976 167.124 42 167.068 42 167.068H43.068C43.068 167.068 43.048 167.14 43.0079 167.284C42.9679 167.42 42.8959 167.588 42.792 167.788C42.6879 167.988 42.536 168.192 42.336 168.4C42.136 168.6 41.88 168.772 41.568 168.916C41.256 169.052 40.868 169.12 40.404 169.12ZM38.556 165.28H42.024C42.008 164.864 41.92 164.528 41.76 164.272C41.6 164.008 41.396 163.812 41.148 163.684C40.9 163.556 40.636 163.492 40.356 163.492C39.852 163.492 39.44 163.656 39.12 163.984C38.8 164.304 38.612 164.736 38.556 165.28Z" fill="#0F172A"/>
<path d="M47.5812 169V160.12H48.7572V169H47.5812Z" fill="#0F172A"/>
<path d="M50.5549 169V162.64H51.6949V163.564H51.7669C51.8229 163.468 51.9149 163.336 52.0429 163.168C52.1789 163 52.3709 162.852 52.6189 162.724C52.8669 162.588 53.1789 162.52 53.5549 162.52C54.0189 162.52 54.4149 162.628 54.7429 162.844C55.0709 163.052 55.3189 163.336 55.4869 163.696C55.6629 164.056 55.7509 164.46 55.7509 164.908V169H54.6109V164.98C54.6109 164.556 54.4909 164.204 54.2509 163.924C54.0189 163.644 53.6789 163.504 53.2309 163.504C52.8709 163.504 52.5789 163.596 52.3549 163.78C52.1309 163.956 51.9629 164.192 51.8509 164.488C51.7469 164.776 51.6949 165.084 51.6949 165.412V169H50.5549Z" fill="#0F172A"/>
<path d="M60.4458 169.12C59.9258 169.12 59.4698 169.028 59.0778 168.844C58.6858 168.652 58.3578 168.4 58.0938 168.088C57.8378 167.768 57.6418 167.412 57.5058 167.02C57.3778 166.628 57.3138 166.228 57.3138 165.82C57.3138 165.412 57.3778 165.016 57.5058 164.632C57.6338 164.24 57.8258 163.884 58.0818 163.564C58.3458 163.244 58.6738 162.992 59.0658 162.808C59.4578 162.616 59.9178 162.52 60.4458 162.52C60.9578 162.52 61.3818 162.596 61.7178 162.748C62.0538 162.9 62.3218 163.092 62.5218 163.324C62.7298 163.548 62.8818 163.776 62.9778 164.008C63.0818 164.232 63.1498 164.42 63.1818 164.572C63.2138 164.724 63.2298 164.8 63.2298 164.8H62.1258C62.1258 164.8 62.1058 164.736 62.0658 164.608C62.0258 164.472 61.9498 164.32 61.8378 164.152C61.7258 163.984 61.5578 163.836 61.3338 163.708C61.1098 163.572 60.8138 163.504 60.4458 163.504C60.0058 163.504 59.6338 163.616 59.3298 163.84C59.0338 164.056 58.8098 164.34 58.6578 164.692C58.5138 165.044 58.4418 165.42 58.4418 165.82C58.4418 166.22 58.5138 166.596 58.6578 166.948C58.8098 167.3 59.0338 167.588 59.3298 167.812C59.6338 168.028 60.0058 168.136 60.4458 168.136C60.8138 168.136 61.1098 168.072 61.3338 167.944C61.5578 167.808 61.7258 167.656 61.8378 167.488C61.9498 167.32 62.0258 167.172 62.0658 167.044C62.1058 166.908 62.1258 166.84 62.1258 166.84H63.2298C63.2298 166.84 63.2138 166.916 63.1818 167.068C63.1498 167.22 63.0818 167.412 62.9778 167.644C62.8818 167.868 62.7298 168.096 62.5218 168.328C62.3218 168.552 62.0538 168.74 61.7178 168.892C61.3818 169.044 60.9578 169.12 60.4458 169.12Z" fill="#0F172A"/>
<rect x="86" y="52" width="13" height="13" fill="white"/>
<path d="M93.6713 62.2784C93.7323 61.3064 94.144 60.3897 94.8299 59.6984C95.5159 59.0072 96.4295 58.5884 97.4009 58.52L99.5993 58.3664L97.4009 58.2152C96.4302 58.1469 95.5173 57.7288 94.8314 57.0385C94.1456 56.3482 93.7334 55.4326 93.6713 54.4616L93.5369 52.3544L93.4025 54.4616C93.3412 55.4319 92.9302 56.3472 92.2458 57.0378C91.5614 57.7284 90.6499 58.1475 89.6801 58.2176L87.4817 58.3688L89.6801 58.52C90.6502 58.5901 91.5621 59.0096 92.2466 59.7006C92.931 60.3917 93.3417 61.3076 93.4025 62.2784L93.5369 64.3856L93.6713 62.2784Z" fill="#FFD700"/>
<path d="M97.7487 64.6568C97.7773 64.2016 97.9702 63.7723 98.2916 63.4487C98.613 63.1251 99.0409 62.9293 99.4959 62.8976L100.528 62.8256L99.4959 62.7536C99.0409 62.7219 98.613 62.5261 98.2916 62.2025C97.9702 61.8789 97.7773 61.4496 97.7487 60.9944L97.6839 60.0056L97.6215 60.9944C97.5929 61.45 97.3996 61.8796 97.0778 62.2032C96.7559 62.5269 96.3273 62.7225 95.8719 62.7536L94.8423 62.8256L95.8719 62.8976C96.3273 62.9287 96.7559 63.1243 97.0778 63.448C97.3996 63.7716 97.5929 64.2012 97.6215 64.6568L97.6839 65.6456L97.7487 64.6568Z" fill="#FFD700"/>
<path d="M91.1202 55.112C91.1364 54.842 91.2503 54.5872 91.4407 54.3951C91.631 54.203 91.8847 54.0867 92.1546 54.068L92.7666 54.0248L92.1546 53.984C91.8849 53.9647 91.6315 53.8483 91.4413 53.6563C91.251 53.4642 91.1369 53.2097 91.1202 52.94L91.0818 52.3544L91.0434 52.94C91.0266 53.2097 90.9125 53.4642 90.7223 53.6563C90.532 53.8483 90.2786 53.9647 90.009 53.984L89.397 54.0248L90.009 54.068C90.2787 54.0867 90.5325 54.203 90.7228 54.3951C90.9131 54.5872 91.0271 54.842 91.0434 55.112L91.0818 55.6976L91.1202 55.112Z" fill="#FFD700"/>
<path d="M89.1832 56.4992C89.1906 56.383 89.2399 56.2734 89.322 56.1908C89.4041 56.1083 89.5135 56.0583 89.6297 56.0504L89.8937 56.0312L89.6297 56.012C89.5135 56.0041 89.4041 55.9542 89.322 55.8716C89.2399 55.7891 89.1906 55.6795 89.1832 55.5632L89.1664 55.3232L89.1497 55.5632C89.1424 55.6795 89.0931 55.7891 89.0109 55.8716C88.9288 55.9542 88.8195 56.0041 88.7033 56.012L88.4417 56.0312L88.7033 56.0504C88.8195 56.0583 88.9288 56.1083 89.0109 56.1908C89.0931 56.2734 89.1424 56.383 89.1497 56.4992L89.1664 56.7512L89.1832 56.4992Z" fill="#FFD700"/>
</g>
<rect x="0.25" y="0.25" width="294.5" height="181.5" rx="9.75" stroke="#CBD5E1" stroke-width="0.5"/>
<path d="M280.549 15.5L271.58 24.5" stroke="#6B7280" stroke-width="2" stroke-linecap="round" stroke-linejoin="round"/>
<path d="M271.58 15.5L280.549 24.5" stroke="#6B7280" stroke-width="2" stroke-linecap="round" stroke-linejoin="round"/>
<rect width="295" height="182" fill="url(#paint0_linear_4714_77)"/>
<defs>
<linearGradient id="paint0_linear_4714_77" x1="147.5" y1="0" x2="147.5" y2="295.5" gradientUnits="userSpaceOnUse">
<stop offset="0.463645" stop-color="white" stop-opacity="0"/>
<stop offset="1" stop-color="white"/>
</linearGradient>
<clipPath id="clip0_4714_77">
<rect width="295" height="182" rx="10" fill="white"/>
</clipPath>
</defs>
</svg>
