<svg width="295" height="182" viewBox="0 0 295 182" fill="none" xmlns="http://www.w3.org/2000/svg">
<g clip-path="url(#clip0_4672_102)">
<rect width="295" height="182" rx="10" fill="white"/>
<mask id="path-3-inside-1_4672_102" fill="white">
<path d="M0 10C0 4.47715 4.47715 0 10 0H285C290.523 0 295 4.47715 295 10V40H0V10Z"/>
</mask>
<path d="M0 10C0 4.47715 4.47715 0 10 0H285C290.523 0 295 4.47715 295 10V40H0V10Z" fill="white"/>
<path d="M0 0H295H0ZM295 41H0V39H295V41ZM0 40V0V40ZM295 0V40V0Z" fill="#D1D5DB" mask="url(#path-3-inside-1_4672_102)"/>
<path d="M68.96 191V182.12H70.136V189.968H74.708V191H68.96ZM78.7398 191.12C78.2198 191.12 77.7678 191.028 77.3838 190.844C77.0078 190.652 76.6958 190.396 76.4478 190.076C76.2078 189.756 76.0278 189.404 75.9078 189.02C75.7878 188.628 75.7278 188.228 75.7278 187.82C75.7278 187.42 75.7838 187.024 75.8958 186.632C76.0158 186.24 76.1958 185.884 76.4358 185.564C76.6838 185.244 76.9918 184.992 77.3598 184.808C77.7358 184.616 78.1798 184.52 78.6918 184.52C79.2358 184.52 79.7158 184.644 80.1318 184.892C80.5478 185.14 80.8758 185.508 81.1158 185.996C81.3558 186.484 81.4758 187.096 81.4758 187.832V188.168H76.8798C76.9038 188.528 76.9878 188.86 77.1318 189.164C77.2838 189.46 77.4958 189.7 77.7678 189.884C78.0398 190.06 78.3638 190.148 78.7398 190.148C79.0678 190.148 79.3318 190.096 79.5318 189.992C79.7398 189.88 79.9038 189.752 80.0238 189.608C80.1438 189.464 80.2238 189.34 80.2638 189.236C80.3118 189.124 80.3358 189.068 80.3358 189.068H81.4038C81.4038 189.068 81.3838 189.14 81.3438 189.284C81.3038 189.42 81.2318 189.588 81.1278 189.788C81.0238 189.988 80.8718 190.192 80.6718 190.4C80.4718 190.6 80.2158 190.772 79.9038 190.916C79.5918 191.052 79.2038 191.12 78.7398 191.12ZM76.8918 187.28H80.3598C80.3438 186.864 80.2558 186.528 80.0958 186.272C79.9358 186.008 79.7318 185.812 79.4838 185.684C79.2358 185.556 78.9718 185.492 78.6918 185.492C78.1878 185.492 77.7758 185.656 77.4558 185.984C77.1358 186.304 76.9478 186.736 76.8918 187.28ZM85.7328 184.52C86.1328 184.52 86.4688 184.584 86.7408 184.712C87.0128 184.84 87.2328 184.992 87.4008 185.168C87.5688 185.336 87.6968 185.496 87.7848 185.648H87.8568V184.64H88.9968V191H87.8568V189.992H87.7848C87.6968 190.144 87.5688 190.308 87.4008 190.484C87.2328 190.66 87.0128 190.812 86.7408 190.94C86.4688 191.06 86.1328 191.12 85.7328 191.12C85.2528 191.12 84.8328 191.028 84.4728 190.844C84.1128 190.652 83.8128 190.4 83.5728 190.088C83.3328 189.768 83.1528 189.412 83.0328 189.02C82.9128 188.628 82.8528 188.228 82.8528 187.82C82.8528 187.412 82.9128 187.012 83.0328 186.62C83.1528 186.228 83.3328 185.876 83.5728 185.564C83.8128 185.244 84.1128 184.992 84.4728 184.808C84.8328 184.616 85.2528 184.52 85.7328 184.52ZM85.9248 185.492C85.5008 185.492 85.1448 185.608 84.8568 185.84C84.5688 186.064 84.3528 186.352 84.2088 186.704C84.0728 187.056 84.0048 187.428 84.0048 187.82C84.0048 188.204 84.0728 188.576 84.2088 188.936C84.3528 189.288 84.5688 189.58 84.8568 189.812C85.1448 190.036 85.5008 190.148 85.9248 190.148C86.3488 190.148 86.7008 190.036 86.9808 189.812C87.2688 189.58 87.4808 189.288 87.6168 188.936C87.7608 188.576 87.8328 188.204 87.8328 187.82C87.8328 187.428 87.7608 187.056 87.6168 186.704C87.4808 186.352 87.2688 186.064 86.9808 185.84C86.7008 185.608 86.3488 185.492 85.9248 185.492ZM90.672 191V184.64H91.812V185.432H91.86C91.996 185.192 92.196 184.98 92.46 184.796C92.724 184.612 93.096 184.52 93.576 184.52C93.712 184.52 93.836 184.528 93.948 184.544C94.06 184.552 94.116 184.556 94.116 184.556V185.648C94.116 185.648 94.052 185.644 93.924 185.636C93.804 185.62 93.676 185.612 93.54 185.612C92.988 185.612 92.56 185.772 92.256 186.092C91.96 186.404 91.812 186.916 91.812 187.628V191H90.672ZM95.3713 191V184.64H96.5113V185.564H96.5833C96.6393 185.468 96.7313 185.336 96.8593 185.168C96.9953 185 97.1873 184.852 97.4353 184.724C97.6833 184.588 97.9953 184.52 98.3713 184.52C98.8353 184.52 99.2313 184.628 99.5593 184.844C99.8873 185.052 100.135 185.336 100.303 185.696C100.479 186.056 100.567 186.46 100.567 186.908V191H99.4273V186.98C99.4273 186.556 99.3073 186.204 99.0673 185.924C98.8353 185.644 98.4953 185.504 98.0473 185.504C97.6873 185.504 97.3953 185.596 97.1713 185.78C96.9473 185.956 96.7793 186.192 96.6673 186.488C96.5633 186.776 96.5113 187.084 96.5113 187.412V191H95.3713ZM102.37 191V182.12H103.546V185.972H107.782V182.12H108.958V191H107.782V187.028H103.546V191H102.37ZM112.834 191.12C112.202 191.12 111.698 190.924 111.322 190.532C110.946 190.14 110.758 189.596 110.758 188.9V184.64H111.898V188.84C111.898 189.256 112.01 189.576 112.234 189.8C112.466 190.024 112.77 190.136 113.146 190.136C113.53 190.136 113.838 190.036 114.07 189.836C114.302 189.636 114.47 189.38 114.574 189.068C114.678 188.756 114.73 188.436 114.73 188.108V184.64H115.87V191H114.73V190.088H114.658C114.61 190.184 114.518 190.316 114.382 190.484C114.246 190.644 114.054 190.792 113.806 190.928C113.558 191.056 113.234 191.12 112.834 191.12ZM120.939 191.12C120.539 191.12 120.203 191.056 119.931 190.928C119.659 190.8 119.439 190.648 119.271 190.472C119.111 190.296 118.983 190.136 118.887 189.992H118.815V191H117.675V181.88H118.815V185.648H118.887C118.983 185.496 119.111 185.332 119.271 185.156C119.439 184.98 119.659 184.832 119.931 184.712C120.203 184.584 120.539 184.52 120.939 184.52C121.419 184.52 121.839 184.616 122.199 184.808C122.559 184.992 122.859 185.244 123.099 185.564C123.339 185.876 123.519 186.228 123.639 186.62C123.759 187.012 123.819 187.412 123.819 187.82C123.819 188.228 123.759 188.628 123.639 189.02C123.519 189.412 123.339 189.768 123.099 190.088C122.859 190.4 122.559 190.652 122.199 190.844C121.839 191.028 121.419 191.12 120.939 191.12ZM120.747 190.148C121.179 190.148 121.535 190.036 121.815 189.812C122.103 189.58 122.315 189.288 122.451 188.936C122.595 188.576 122.667 188.204 122.667 187.82C122.667 187.428 122.595 187.056 122.451 186.704C122.315 186.352 122.103 186.064 121.815 185.84C121.535 185.608 121.179 185.492 120.747 185.492C120.323 185.492 119.967 185.608 119.679 185.84C119.399 186.064 119.187 186.352 119.043 186.704C118.907 187.056 118.839 187.428 118.839 187.82C118.839 188.204 118.907 188.576 119.043 188.936C119.187 189.288 119.399 189.58 119.679 189.812C119.967 190.036 120.323 190.148 120.747 190.148ZM132.169 191.12C131.473 191.12 130.861 190.992 130.333 190.736C129.805 190.472 129.365 190.124 129.013 189.692C128.669 189.252 128.409 188.764 128.233 188.228C128.057 187.684 127.969 187.128 127.969 186.56C127.969 185.992 128.057 185.436 128.233 184.892C128.409 184.348 128.669 183.86 129.013 183.428C129.365 182.988 129.805 182.64 130.333 182.384C130.861 182.128 131.473 182 132.169 182C132.745 182 133.237 182.076 133.645 182.228C134.061 182.372 134.405 182.56 134.677 182.792C134.957 183.024 135.181 183.272 135.349 183.536C135.525 183.8 135.653 184.048 135.733 184.28C135.821 184.512 135.877 184.704 135.901 184.856C135.933 185 135.949 185.072 135.949 185.072H134.773C134.773 185.072 134.757 185.008 134.725 184.88C134.693 184.744 134.629 184.58 134.533 184.388C134.437 184.188 134.293 183.988 134.101 183.788C133.909 183.588 133.657 183.424 133.345 183.296C133.033 183.16 132.645 183.092 132.181 183.092C131.677 183.092 131.237 183.192 130.861 183.392C130.485 183.584 130.169 183.848 129.913 184.184C129.665 184.512 129.477 184.884 129.349 185.3C129.229 185.708 129.169 186.128 129.169 186.56C129.169 186.992 129.229 187.416 129.349 187.832C129.477 188.24 129.665 188.612 129.913 188.948C130.169 189.276 130.485 189.54 130.861 189.74C131.237 189.932 131.677 190.028 132.181 190.028C132.645 190.028 133.033 189.96 133.345 189.824C133.657 189.688 133.909 189.524 134.101 189.332C134.293 189.132 134.437 188.936 134.533 188.744C134.629 188.544 134.693 188.376 134.725 188.24C134.757 188.104 134.773 188.036 134.773 188.036H135.949C135.949 188.036 135.933 188.112 135.901 188.264C135.877 188.408 135.821 188.6 135.733 188.84C135.653 189.072 135.525 189.32 135.349 189.584C135.181 189.84 134.957 190.088 134.677 190.328C134.405 190.56 134.061 190.752 133.645 190.904C133.237 191.048 132.745 191.12 132.169 191.12ZM140.465 191.12C139.785 191.12 139.213 190.964 138.749 190.652C138.285 190.332 137.933 189.92 137.693 189.416C137.453 188.912 137.333 188.38 137.333 187.82C137.333 187.252 137.453 186.72 137.693 186.224C137.933 185.72 138.285 185.312 138.749 185C139.213 184.68 139.785 184.52 140.465 184.52C141.145 184.52 141.717 184.68 142.181 185C142.645 185.312 142.997 185.72 143.237 186.224C143.477 186.72 143.597 187.252 143.597 187.82C143.597 188.38 143.477 188.912 143.237 189.416C142.997 189.92 142.645 190.332 142.181 190.652C141.717 190.964 141.145 191.12 140.465 191.12ZM140.465 190.124C140.897 190.124 141.257 190.016 141.545 189.8C141.841 189.576 142.061 189.288 142.205 188.936C142.357 188.584 142.433 188.212 142.433 187.82C142.433 187.42 142.357 187.048 142.205 186.704C142.061 186.352 141.841 186.068 141.545 185.852C141.257 185.628 140.897 185.516 140.465 185.516C140.041 185.516 139.681 185.628 139.385 185.852C139.089 186.068 138.865 186.352 138.713 186.704C138.569 187.048 138.497 187.42 138.497 187.82C138.497 188.212 138.569 188.584 138.713 188.936C138.865 189.288 139.089 189.576 139.385 189.8C139.681 190.016 140.041 190.124 140.465 190.124ZM145.153 191V184.64H146.293V185.564H146.365C146.421 185.468 146.513 185.336 146.641 185.168C146.777 185 146.969 184.852 147.217 184.724C147.465 184.588 147.777 184.52 148.153 184.52C148.617 184.52 149.013 184.628 149.341 184.844C149.669 185.052 149.917 185.336 150.085 185.696C150.261 186.056 150.349 186.46 150.349 186.908V191H149.209V186.98C149.209 186.556 149.089 186.204 148.849 185.924C148.617 185.644 148.277 185.504 147.829 185.504C147.469 185.504 147.177 185.596 146.953 185.78C146.729 185.956 146.561 186.192 146.449 186.488C146.345 186.776 146.293 187.084 146.293 187.412V191H145.153ZM152.031 191V184.64H153.171V185.564H153.243C153.299 185.468 153.391 185.336 153.519 185.168C153.655 185 153.847 184.852 154.095 184.724C154.343 184.588 154.655 184.52 155.031 184.52C155.495 184.52 155.891 184.628 156.219 184.844C156.547 185.052 156.795 185.336 156.963 185.696C157.139 186.056 157.227 186.46 157.227 186.908V191H156.087V186.98C156.087 186.556 155.967 186.204 155.727 185.924C155.495 185.644 155.155 185.504 154.707 185.504C154.347 185.504 154.055 185.596 153.831 185.78C153.607 185.956 153.439 186.192 153.327 186.488C153.223 186.776 153.171 187.084 153.171 187.412V191H152.031ZM161.802 191.12C161.282 191.12 160.83 191.028 160.446 190.844C160.07 190.652 159.758 190.396 159.51 190.076C159.27 189.756 159.09 189.404 158.97 189.02C158.85 188.628 158.79 188.228 158.79 187.82C158.79 187.42 158.846 187.024 158.958 186.632C159.078 186.24 159.258 185.884 159.498 185.564C159.746 185.244 160.054 184.992 160.422 184.808C160.798 184.616 161.242 184.52 161.754 184.52C162.298 184.52 162.778 184.644 163.194 184.892C163.61 185.14 163.938 185.508 164.178 185.996C164.418 186.484 164.538 187.096 164.538 187.832V188.168H159.942C159.966 188.528 160.05 188.86 160.194 189.164C160.346 189.46 160.558 189.7 160.83 189.884C161.102 190.06 161.426 190.148 161.802 190.148C162.13 190.148 162.394 190.096 162.594 189.992C162.802 189.88 162.966 189.752 163.086 189.608C163.206 189.464 163.286 189.34 163.326 189.236C163.374 189.124 163.398 189.068 163.398 189.068H164.466C164.466 189.068 164.446 189.14 164.406 189.284C164.366 189.42 164.294 189.588 164.19 189.788C164.086 189.988 163.934 190.192 163.734 190.4C163.534 190.6 163.278 190.772 162.966 190.916C162.654 191.052 162.266 191.12 161.802 191.12ZM159.954 187.28H163.422C163.406 186.864 163.318 186.528 163.158 186.272C162.998 186.008 162.794 185.812 162.546 185.684C162.298 185.556 162.034 185.492 161.754 185.492C161.25 185.492 160.838 185.656 160.518 185.984C160.198 186.304 160.01 186.736 159.954 187.28ZM169.047 191.12C168.527 191.12 168.071 191.028 167.679 190.844C167.287 190.652 166.959 190.4 166.695 190.088C166.439 189.768 166.243 189.412 166.107 189.02C165.979 188.628 165.915 188.228 165.915 187.82C165.915 187.412 165.979 187.016 166.107 186.632C166.235 186.24 166.427 185.884 166.683 185.564C166.947 185.244 167.275 184.992 167.667 184.808C168.059 184.616 168.519 184.52 169.047 184.52C169.559 184.52 169.983 184.596 170.319 184.748C170.655 184.9 170.923 185.092 171.123 185.324C171.331 185.548 171.483 185.776 171.579 186.008C171.683 186.232 171.751 186.42 171.783 186.572C171.815 186.724 171.831 186.8 171.831 186.8H170.727C170.727 186.8 170.707 186.736 170.667 186.608C170.627 186.472 170.551 186.32 170.439 186.152C170.327 185.984 170.159 185.836 169.935 185.708C169.711 185.572 169.415 185.504 169.047 185.504C168.607 185.504 168.235 185.616 167.931 185.84C167.635 186.056 167.411 186.34 167.259 186.692C167.115 187.044 167.043 187.42 167.043 187.82C167.043 188.22 167.115 188.596 167.259 188.948C167.411 189.3 167.635 189.588 167.931 189.812C168.235 190.028 168.607 190.136 169.047 190.136C169.415 190.136 169.711 190.072 169.935 189.944C170.159 189.808 170.327 189.656 170.439 189.488C170.551 189.32 170.627 189.172 170.667 189.044C170.707 188.908 170.727 188.84 170.727 188.84H171.831C171.831 188.84 171.815 188.916 171.783 189.068C171.751 189.22 171.683 189.412 171.579 189.644C171.483 189.868 171.331 190.096 171.123 190.328C170.923 190.552 170.655 190.74 170.319 190.892C169.983 191.044 169.559 191.12 169.047 191.12ZM176.095 191.12C175.439 191.12 174.943 190.952 174.607 190.616C174.279 190.28 174.115 189.808 174.115 189.2V185.576H172.975V184.64H174.115V183.044H175.255V184.64H176.803V185.576H175.255V189.2C175.255 189.52 175.343 189.756 175.519 189.908C175.695 190.052 175.951 190.124 176.287 190.124C176.463 190.124 176.631 190.112 176.791 190.088C176.951 190.064 177.031 190.052 177.031 190.052V191.024C177.031 191.024 176.939 191.04 176.755 191.072C176.571 191.104 176.351 191.12 176.095 191.12Z" fill="#64748B"/>
<circle cx="22" cy="62" r="12" fill="#2D2B4C"/>
<line y1="83.5" x2="295.002" y2="83.5" stroke="#CBD5E1"/>
<line y1="166.5" x2="295.002" y2="166.5" stroke="#CBD5E1"/>
<line y1="122.5" x2="295.002" y2="122.5" stroke="#CBD5E1"/>
<path d="M10.864 24V15.12H12.352L16.432 21.144V15.12H18.052V24H16.564L12.484 18.084V24H10.864Z" fill="#6B7280"/>
<path d="M22.3391 17.52C22.7471 17.52 23.0831 17.588 23.3471 17.724C23.6111 17.852 23.8191 17.996 23.9711 18.156C24.1231 18.308 24.2271 18.432 24.2831 18.528H24.3551V17.64H25.9511V24H24.3551V23.112H24.2831C24.2271 23.208 24.1231 23.336 23.9711 23.496C23.8191 23.656 23.6111 23.8 23.3471 23.928C23.0831 24.056 22.7471 24.12 22.3391 24.12C21.8671 24.12 21.4551 24.028 21.1031 23.844C20.7511 23.652 20.4551 23.4 20.2151 23.088C19.9831 22.768 19.8071 22.412 19.6871 22.02C19.5751 21.628 19.5191 21.228 19.5191 20.82C19.5191 20.412 19.5751 20.012 19.6871 19.62C19.8071 19.228 19.9831 18.876 20.2151 18.564C20.4551 18.244 20.7511 17.992 21.1031 17.808C21.4551 17.616 21.8671 17.52 22.3391 17.52ZM22.7591 18.828C22.3991 18.828 22.0951 18.928 21.8471 19.128C21.6071 19.32 21.4271 19.568 21.3071 19.872C21.1871 20.176 21.1271 20.492 21.1271 20.82C21.1271 21.148 21.1871 21.464 21.3071 21.768C21.4271 22.072 21.6071 22.324 21.8471 22.524C22.0951 22.716 22.3991 22.812 22.7591 22.812C23.1191 22.812 23.4191 22.716 23.6591 22.524C23.8991 22.324 24.0791 22.072 24.1991 21.768C24.3191 21.464 24.3791 21.148 24.3791 20.82C24.3791 20.492 24.3191 20.176 24.1991 19.872C24.0791 19.568 23.8991 19.32 23.6591 19.128C23.4191 18.928 23.1191 18.828 22.7591 18.828Z" fill="#6B7280"/>
<path d="M27.4667 24V17.64H29.0627V18.528H29.1227C29.2027 18.384 29.3147 18.236 29.4587 18.084C29.6027 17.924 29.7867 17.792 30.0107 17.688C30.2427 17.576 30.5267 17.52 30.8627 17.52C31.3347 17.52 31.7227 17.632 32.0267 17.856C32.3307 18.08 32.5547 18.368 32.6987 18.72H32.7227C32.8827 18.416 33.1187 18.14 33.4307 17.892C33.7507 17.644 34.1747 17.52 34.7027 17.52C35.1507 17.52 35.5227 17.624 35.8187 17.832C36.1227 18.032 36.3467 18.304 36.4907 18.648C36.6427 18.992 36.7187 19.364 36.7187 19.764V24H35.1227V20.1C35.1227 19.732 35.0307 19.432 34.8467 19.2C34.6707 18.96 34.4067 18.84 34.0547 18.84C33.7747 18.84 33.5467 18.916 33.3707 19.068C33.2027 19.212 33.0787 19.396 32.9987 19.62C32.9267 19.844 32.8907 20.072 32.8907 20.304V24H31.2947V20.1C31.2947 19.732 31.2067 19.432 31.0307 19.2C30.8547 18.96 30.5867 18.84 30.2267 18.84C29.9467 18.84 29.7187 18.916 29.5427 19.068C29.3747 19.212 29.2507 19.4 29.1707 19.632C29.0987 19.856 29.0627 20.08 29.0627 20.304V24H27.4667Z" fill="#6B7280"/>
<path d="M41.2262 24.12C40.6822 24.12 40.2102 24.028 39.8102 23.844C39.4182 23.652 39.0902 23.4 38.8262 23.088C38.5702 22.768 38.3782 22.412 38.2502 22.02C38.1222 21.628 38.0582 21.228 38.0582 20.82C38.0582 20.412 38.1182 20.016 38.2382 19.632C38.3662 19.24 38.5542 18.884 38.8022 18.564C39.0582 18.244 39.3822 17.992 39.7742 17.808C40.1662 17.616 40.6302 17.52 41.1662 17.52C41.7422 17.52 42.2502 17.648 42.6902 17.904C43.1302 18.16 43.4742 18.536 43.7222 19.032C43.9702 19.52 44.0942 20.128 44.0942 20.856V21.264H39.6662C39.6902 21.696 39.8382 22.072 40.1102 22.392C40.3822 22.704 40.7542 22.86 41.2262 22.86C41.4982 22.86 41.7222 22.816 41.8982 22.728C42.0742 22.64 42.2102 22.54 42.3062 22.428C42.4022 22.308 42.4702 22.208 42.5102 22.128C42.5502 22.04 42.5702 21.996 42.5702 21.996H44.0462C44.0462 21.996 44.0262 22.068 43.9862 22.212C43.9462 22.348 43.8702 22.524 43.7582 22.74C43.6542 22.948 43.4982 23.16 43.2902 23.376C43.0822 23.584 42.8102 23.76 42.4742 23.904C42.1382 24.048 41.7222 24.12 41.2262 24.12ZM39.6662 20.22H42.5582C42.5342 19.724 42.3862 19.356 42.1142 19.116C41.8422 18.876 41.5222 18.756 41.1542 18.756C40.7462 18.756 40.4062 18.888 40.1342 19.152C39.8622 19.408 39.7062 19.764 39.6662 20.22Z" fill="#6B7280"/>
<path d="M239.864 24V15.12H241.496V22.584H245.912V24H239.864Z" fill="#6B7280"/>
<path d="M250.166 24.12C249.47 24.12 248.878 23.964 248.39 23.652C247.902 23.34 247.53 22.936 247.274 22.44C247.026 21.936 246.902 21.396 246.902 20.82C246.902 20.244 247.026 19.708 247.274 19.212C247.53 18.708 247.902 18.3 248.39 17.988C248.878 17.676 249.47 17.52 250.166 17.52C250.87 17.52 251.462 17.676 251.942 17.988C252.43 18.3 252.798 18.708 253.046 19.212C253.302 19.708 253.43 20.244 253.43 20.82C253.43 21.396 253.302 21.936 253.046 22.44C252.798 22.936 252.43 23.34 251.942 23.652C251.462 23.964 250.87 24.12 250.166 24.12ZM250.166 22.788C250.526 22.788 250.826 22.696 251.066 22.512C251.314 22.328 251.502 22.088 251.63 21.792C251.758 21.488 251.822 21.164 251.822 20.82C251.822 20.468 251.758 20.144 251.63 19.848C251.502 19.552 251.314 19.312 251.066 19.128C250.826 18.944 250.526 18.852 250.166 18.852C249.814 18.852 249.514 18.944 249.266 19.128C249.018 19.312 248.83 19.552 248.702 19.848C248.574 20.144 248.51 20.468 248.51 20.82C248.51 21.164 248.574 21.488 248.702 21.792C248.83 22.088 249.018 22.328 249.266 22.512C249.514 22.696 249.814 22.788 250.166 22.788Z" fill="#6B7280"/>
<path d="M257.959 26.544C257.391 26.544 256.919 26.468 256.543 26.316C256.175 26.172 255.883 25.992 255.667 25.776C255.451 25.568 255.291 25.356 255.187 25.14C255.083 24.924 255.015 24.744 254.983 24.6C254.951 24.456 254.935 24.384 254.935 24.384H256.495C256.495 24.384 256.511 24.428 256.543 24.516C256.575 24.604 256.639 24.704 256.735 24.816C256.839 24.936 256.987 25.04 257.179 25.128C257.371 25.216 257.627 25.26 257.947 25.26C258.507 25.26 258.911 25.1 259.159 24.78C259.407 24.46 259.531 24.072 259.531 23.616V22.908H259.459C259.371 23.044 259.243 23.192 259.075 23.352C258.915 23.512 258.703 23.648 258.439 23.76C258.183 23.872 257.871 23.928 257.503 23.928C257.031 23.928 256.619 23.836 256.267 23.652C255.915 23.468 255.619 23.224 255.379 22.92C255.139 22.616 254.959 22.276 254.839 21.9C254.727 21.516 254.671 21.124 254.671 20.724C254.671 20.324 254.727 19.936 254.839 19.56C254.959 19.176 255.139 18.832 255.379 18.528C255.619 18.216 255.915 17.972 256.267 17.796C256.619 17.612 257.031 17.52 257.503 17.52C257.871 17.52 258.183 17.576 258.439 17.688C258.703 17.8 258.915 17.936 259.075 18.096C259.243 18.248 259.371 18.392 259.459 18.528H259.531V17.64H261.127V23.604C261.127 24.156 261.011 24.652 260.779 25.092C260.547 25.54 260.195 25.892 259.723 26.148C259.259 26.412 258.671 26.544 257.959 26.544ZM257.923 22.644C258.283 22.644 258.583 22.552 258.823 22.368C259.063 22.176 259.243 21.936 259.363 21.648C259.483 21.352 259.543 21.044 259.543 20.724C259.543 20.396 259.483 20.088 259.363 19.8C259.243 19.504 259.063 19.264 258.823 19.08C258.583 18.896 258.283 18.804 257.923 18.804C257.555 18.804 257.247 18.896 256.999 19.08C256.759 19.264 256.579 19.504 256.459 19.8C256.339 20.088 256.279 20.396 256.279 20.724C256.279 21.044 256.339 21.352 256.459 21.648C256.579 21.936 256.759 22.176 256.999 22.368C257.247 22.552 257.555 22.644 257.923 22.644Z" fill="#6B7280"/>
<path d="M265.67 26.544C265.102 26.544 264.63 26.468 264.254 26.316C263.886 26.172 263.594 25.992 263.378 25.776C263.162 25.568 263.002 25.356 262.898 25.14C262.794 24.924 262.726 24.744 262.694 24.6C262.662 24.456 262.646 24.384 262.646 24.384H264.206C264.206 24.384 264.222 24.428 264.254 24.516C264.286 24.604 264.35 24.704 264.446 24.816C264.55 24.936 264.698 25.04 264.89 25.128C265.082 25.216 265.338 25.26 265.658 25.26C266.218 25.26 266.622 25.1 266.87 24.78C267.118 24.46 267.242 24.072 267.242 23.616V22.908H267.17C267.082 23.044 266.954 23.192 266.786 23.352C266.626 23.512 266.414 23.648 266.15 23.76C265.894 23.872 265.582 23.928 265.214 23.928C264.742 23.928 264.33 23.836 263.978 23.652C263.626 23.468 263.33 23.224 263.09 22.92C262.85 22.616 262.67 22.276 262.55 21.9C262.438 21.516 262.382 21.124 262.382 20.724C262.382 20.324 262.438 19.936 262.55 19.56C262.67 19.176 262.85 18.832 263.09 18.528C263.33 18.216 263.626 17.972 263.978 17.796C264.33 17.612 264.742 17.52 265.214 17.52C265.582 17.52 265.894 17.576 266.15 17.688C266.414 17.8 266.626 17.936 266.786 18.096C266.954 18.248 267.082 18.392 267.17 18.528H267.242V17.64H268.838V23.604C268.838 24.156 268.722 24.652 268.49 25.092C268.258 25.54 267.906 25.892 267.434 26.148C266.97 26.412 266.382 26.544 265.67 26.544ZM265.634 22.644C265.994 22.644 266.294 22.552 266.534 22.368C266.774 22.176 266.954 21.936 267.074 21.648C267.194 21.352 267.254 21.044 267.254 20.724C267.254 20.396 267.194 20.088 267.074 19.8C266.954 19.504 266.774 19.264 266.534 19.08C266.294 18.896 265.994 18.804 265.634 18.804C265.266 18.804 264.958 18.896 264.71 19.08C264.47 19.264 264.29 19.504 264.17 19.8C264.05 20.088 263.99 20.396 263.99 20.724C263.99 21.044 264.05 21.352 264.17 21.648C264.29 21.936 264.47 22.176 264.71 22.368C264.958 22.552 265.266 22.644 265.634 22.644Z" fill="#6B7280"/>
<path d="M273.261 24.12C272.717 24.12 272.245 24.028 271.845 23.844C271.453 23.652 271.125 23.4 270.861 23.088C270.605 22.768 270.413 22.412 270.285 22.02C270.157 21.628 270.093 21.228 270.093 20.82C270.093 20.412 270.153 20.016 270.273 19.632C270.401 19.24 270.589 18.884 270.837 18.564C271.093 18.244 271.417 17.992 271.809 17.808C272.201 17.616 272.665 17.52 273.201 17.52C273.777 17.52 274.285 17.648 274.725 17.904C275.165 18.16 275.509 18.536 275.757 19.032C276.005 19.52 276.129 20.128 276.129 20.856V21.264H271.701C271.725 21.696 271.873 22.072 272.145 22.392C272.417 22.704 272.789 22.86 273.261 22.86C273.533 22.86 273.757 22.816 273.933 22.728C274.109 22.64 274.245 22.54 274.341 22.428C274.437 22.308 274.505 22.208 274.545 22.128C274.585 22.04 274.605 21.996 274.605 21.996H276.081C276.081 21.996 276.061 22.068 276.021 22.212C275.981 22.348 275.905 22.524 275.793 22.74C275.689 22.948 275.533 23.16 275.325 23.376C275.117 23.584 274.845 23.76 274.509 23.904C274.173 24.048 273.757 24.12 273.261 24.12ZM271.701 20.22H274.593C274.569 19.724 274.421 19.356 274.149 19.116C273.877 18.876 273.557 18.756 273.189 18.756C272.781 18.756 272.441 18.888 272.169 19.152C271.897 19.408 271.741 19.764 271.701 20.22Z" fill="#6B7280"/>
<path d="M280.191 24.12C279.719 24.12 279.307 24.028 278.955 23.844C278.603 23.652 278.307 23.4 278.067 23.088C277.835 22.768 277.659 22.412 277.539 22.02C277.427 21.628 277.371 21.228 277.371 20.82C277.371 20.412 277.427 20.012 277.539 19.62C277.659 19.228 277.835 18.876 278.067 18.564C278.307 18.244 278.603 17.992 278.955 17.808C279.307 17.616 279.719 17.52 280.191 17.52C280.599 17.52 280.935 17.588 281.199 17.724C281.463 17.852 281.671 17.996 281.823 18.156C281.975 18.308 282.079 18.432 282.135 18.528H282.207V14.88H283.803V24H282.207V23.112H282.135C282.079 23.208 281.975 23.336 281.823 23.496C281.671 23.656 281.463 23.8 281.199 23.928C280.935 24.056 280.599 24.12 280.191 24.12ZM280.611 22.812C280.971 22.812 281.271 22.716 281.511 22.524C281.751 22.324 281.931 22.072 282.051 21.768C282.171 21.464 282.231 21.148 282.231 20.82C282.231 20.492 282.171 20.176 282.051 19.872C281.931 19.568 281.751 19.32 281.511 19.128C281.271 18.928 280.971 18.828 280.611 18.828C280.251 18.828 279.947 18.928 279.699 19.128C279.459 19.32 279.279 19.568 279.159 19.872C279.039 20.176 278.979 20.492 278.979 20.82C278.979 21.148 279.039 21.464 279.159 21.768C279.279 22.072 279.459 22.324 279.699 22.524C279.947 22.716 280.251 22.812 280.611 22.812Z" fill="#6B7280"/>
<path d="M47.936 66.12C47.424 66.12 46.984 66.056 46.616 65.928C46.256 65.792 45.956 65.62 45.716 65.412C45.476 65.196 45.284 64.972 45.14 64.74C44.996 64.508 44.888 64.288 44.816 64.08C44.744 63.864 44.696 63.692 44.672 63.564C44.656 63.428 44.648 63.36 44.648 63.36H45.848C45.848 63.36 45.86 63.416 45.884 63.528C45.908 63.64 45.956 63.78 46.028 63.948C46.108 64.116 46.224 64.288 46.376 64.464C46.528 64.632 46.732 64.772 46.988 64.884C47.244 64.996 47.568 65.052 47.96 65.052C48.552 65.052 49.02 64.912 49.364 64.632C49.708 64.344 49.88 63.972 49.88 63.516C49.88 63.124 49.748 62.82 49.484 62.604C49.228 62.388 48.86 62.22 48.38 62.1L47.204 61.812C46.788 61.708 46.4 61.564 46.04 61.38C45.688 61.188 45.404 60.94 45.188 60.636C44.98 60.324 44.876 59.936 44.876 59.472C44.876 58.952 45.004 58.508 45.26 58.14C45.516 57.772 45.864 57.492 46.304 57.3C46.744 57.1 47.244 57 47.804 57C48.348 57 48.8 57.084 49.16 57.252C49.52 57.42 49.808 57.628 50.024 57.876C50.24 58.116 50.4 58.36 50.504 58.608C50.608 58.848 50.676 59.052 50.708 59.22C50.74 59.388 50.756 59.472 50.756 59.472H49.604C49.604 59.472 49.588 59.4 49.556 59.256C49.524 59.112 49.448 58.948 49.328 58.764C49.208 58.572 49.024 58.404 48.776 58.26C48.528 58.116 48.192 58.044 47.768 58.044C47.192 58.044 46.756 58.18 46.46 58.452C46.172 58.724 46.028 59.036 46.028 59.388C46.028 59.708 46.144 59.968 46.376 60.168C46.608 60.36 46.928 60.508 47.336 60.612L48.608 60.924C49.064 61.036 49.476 61.2 49.844 61.416C50.212 61.624 50.504 61.896 50.72 62.232C50.936 62.56 51.044 62.964 51.044 63.444C51.044 63.924 50.924 64.368 50.684 64.776C50.452 65.184 50.104 65.512 49.64 65.76C49.184 66 48.616 66.12 47.936 66.12Z" fill="#64748B"/>
<path d="M52.5772 66V56.88H53.7172V60.564H53.7892C53.8452 60.468 53.9372 60.336 54.0652 60.168C54.2012 60 54.3932 59.852 54.6412 59.724C54.8892 59.588 55.2012 59.52 55.5772 59.52C56.0412 59.52 56.4372 59.628 56.7652 59.844C57.0932 60.052 57.3412 60.336 57.5092 60.696C57.6852 61.056 57.7732 61.46 57.7732 61.908V66H56.6332V61.98C56.6332 61.556 56.5132 61.204 56.2732 60.924C56.0412 60.644 55.7012 60.504 55.2532 60.504C54.8932 60.504 54.6012 60.596 54.3772 60.78C54.1532 60.956 53.9852 61.192 53.8732 61.488C53.7692 61.776 53.7172 62.084 53.7172 62.412V66H52.5772Z" fill="#64748B"/>
<path d="M62.4653 66.12C61.7853 66.12 61.2133 65.964 60.7493 65.652C60.2853 65.332 59.9333 64.92 59.6933 64.416C59.4533 63.912 59.3333 63.38 59.3333 62.82C59.3333 62.252 59.4533 61.72 59.6933 61.224C59.9333 60.72 60.2853 60.312 60.7493 60C61.2133 59.68 61.7853 59.52 62.4653 59.52C63.1453 59.52 63.7173 59.68 64.1813 60C64.6453 60.312 64.9973 60.72 65.2373 61.224C65.4773 61.72 65.5973 62.252 65.5973 62.82C65.5973 63.38 65.4773 63.912 65.2373 64.416C64.9973 64.92 64.6453 65.332 64.1813 65.652C63.7173 65.964 63.1453 66.12 62.4653 66.12ZM62.4653 65.124C62.8973 65.124 63.2573 65.016 63.5453 64.8C63.8413 64.576 64.0613 64.288 64.2053 63.936C64.3573 63.584 64.4333 63.212 64.4333 62.82C64.4333 62.42 64.3573 62.048 64.2053 61.704C64.0613 61.352 63.8413 61.068 63.5453 60.852C63.2573 60.628 62.8973 60.516 62.4653 60.516C62.0413 60.516 61.6813 60.628 61.3853 60.852C61.0893 61.068 60.8653 61.352 60.7133 61.704C60.5693 62.048 60.4973 62.42 60.4973 62.82C60.4973 63.212 60.5693 63.584 60.7133 63.936C60.8653 64.288 61.0893 64.576 61.3853 64.8C61.6813 65.016 62.0413 65.124 62.4653 65.124Z" fill="#64748B"/>
<path d="M67.2725 68.352V59.64H68.4125V60.648H68.4845C68.5805 60.496 68.7085 60.332 68.8685 60.156C69.0365 59.98 69.2565 59.832 69.5285 59.712C69.8005 59.584 70.1365 59.52 70.5365 59.52C71.0165 59.52 71.4365 59.616 71.7965 59.808C72.1565 59.992 72.4565 60.244 72.6965 60.564C72.9365 60.876 73.1165 61.228 73.2365 61.62C73.3565 62.012 73.4165 62.412 73.4165 62.82C73.4165 63.228 73.3565 63.628 73.2365 64.02C73.1165 64.412 72.9365 64.768 72.6965 65.088C72.4565 65.4 72.1565 65.652 71.7965 65.844C71.4365 66.028 71.0165 66.12 70.5365 66.12C70.1365 66.12 69.8005 66.056 69.5285 65.928C69.2565 65.8 69.0365 65.648 68.8685 65.472C68.7085 65.296 68.5805 65.136 68.4845 64.992H68.4125V68.352H67.2725ZM68.4365 62.82C68.4365 63.204 68.5045 63.576 68.6405 63.936C68.7845 64.288 68.9965 64.58 69.2765 64.812C69.5645 65.036 69.9205 65.148 70.3445 65.148C70.7765 65.148 71.1325 65.036 71.4125 64.812C71.7005 64.58 71.9125 64.288 72.0485 63.936C72.1925 63.576 72.2645 63.204 72.2645 62.82C72.2645 62.428 72.1925 62.056 72.0485 61.704C71.9125 61.352 71.7005 61.064 71.4125 60.84C71.1325 60.608 70.7765 60.492 70.3445 60.492C69.9205 60.492 69.5645 60.608 69.2765 60.84C68.9965 61.064 68.7845 61.352 68.6405 61.704C68.5045 62.056 68.4365 62.428 68.4365 62.82Z" fill="#64748B"/>
<path d="M78.0766 66.12C77.5646 66.12 77.1246 66.056 76.7566 65.928C76.3966 65.792 76.0966 65.62 75.8566 65.412C75.6166 65.196 75.4246 64.972 75.2806 64.74C75.1366 64.508 75.0286 64.288 74.9566 64.08C74.8846 63.864 74.8366 63.692 74.8126 63.564C74.7966 63.428 74.7886 63.36 74.7886 63.36H75.9886C75.9886 63.36 76.0006 63.416 76.0246 63.528C76.0486 63.64 76.0966 63.78 76.1686 63.948C76.2486 64.116 76.3646 64.288 76.5166 64.464C76.6686 64.632 76.8726 64.772 77.1286 64.884C77.3846 64.996 77.7086 65.052 78.1006 65.052C78.6926 65.052 79.1606 64.912 79.5046 64.632C79.8486 64.344 80.0206 63.972 80.0206 63.516C80.0206 63.124 79.8886 62.82 79.6246 62.604C79.3686 62.388 79.0006 62.22 78.5206 62.1L77.3446 61.812C76.9286 61.708 76.5406 61.564 76.1806 61.38C75.8286 61.188 75.5446 60.94 75.3286 60.636C75.1206 60.324 75.0166 59.936 75.0166 59.472C75.0166 58.952 75.1446 58.508 75.4006 58.14C75.6566 57.772 76.0046 57.492 76.4446 57.3C76.8846 57.1 77.3846 57 77.9446 57C78.4886 57 78.9406 57.084 79.3006 57.252C79.6606 57.42 79.9486 57.628 80.1646 57.876C80.3806 58.116 80.5406 58.36 80.6446 58.608C80.7486 58.848 80.8166 59.052 80.8486 59.22C80.8806 59.388 80.8966 59.472 80.8966 59.472H79.7446C79.7446 59.472 79.7286 59.4 79.6966 59.256C79.6646 59.112 79.5886 58.948 79.4686 58.764C79.3486 58.572 79.1646 58.404 78.9166 58.26C78.6686 58.116 78.3326 58.044 77.9086 58.044C77.3326 58.044 76.8966 58.18 76.6006 58.452C76.3126 58.724 76.1686 59.036 76.1686 59.388C76.1686 59.708 76.2846 59.968 76.5166 60.168C76.7486 60.36 77.0686 60.508 77.4766 60.612L78.7486 60.924C79.2046 61.036 79.6166 61.2 79.9846 61.416C80.3526 61.624 80.6446 61.896 80.8606 62.232C81.0766 62.56 81.1846 62.964 81.1846 63.444C81.1846 63.924 81.0646 64.368 80.8246 64.776C80.5926 65.184 80.2446 65.512 79.7806 65.76C79.3246 66 78.7566 66.12 78.0766 66.12Z" fill="#64748B"/>
<path d="M82.7178 68.352V59.64H83.8578V60.648H83.9298C84.0258 60.496 84.1538 60.332 84.3138 60.156C84.4818 59.98 84.7018 59.832 84.9738 59.712C85.2458 59.584 85.5818 59.52 85.9818 59.52C86.4618 59.52 86.8818 59.616 87.2418 59.808C87.6018 59.992 87.9018 60.244 88.1418 60.564C88.3818 60.876 88.5618 61.228 88.6818 61.62C88.8018 62.012 88.8618 62.412 88.8618 62.82C88.8618 63.228 88.8018 63.628 88.6818 64.02C88.5618 64.412 88.3818 64.768 88.1418 65.088C87.9018 65.4 87.6018 65.652 87.2418 65.844C86.8818 66.028 86.4618 66.12 85.9818 66.12C85.5818 66.12 85.2458 66.056 84.9738 65.928C84.7018 65.8 84.4818 65.648 84.3138 65.472C84.1538 65.296 84.0258 65.136 83.9298 64.992H83.8578V68.352H82.7178ZM83.8818 62.82C83.8818 63.204 83.9498 63.576 84.0858 63.936C84.2298 64.288 84.4418 64.58 84.7218 64.812C85.0098 65.036 85.3658 65.148 85.7898 65.148C86.2218 65.148 86.5778 65.036 86.8578 64.812C87.1458 64.58 87.3578 64.288 87.4938 63.936C87.6378 63.576 87.7098 63.204 87.7098 62.82C87.7098 62.428 87.6378 62.056 87.4938 61.704C87.3578 61.352 87.1458 61.064 86.8578 60.84C86.5778 60.608 86.2218 60.492 85.7898 60.492C85.3658 60.492 85.0098 60.608 84.7218 60.84C84.4418 61.064 84.2298 61.352 84.0858 61.704C83.9498 62.056 83.8818 62.428 83.8818 62.82Z" fill="#64748B"/>
<path d="M90.546 66V56.88H91.686V60.564H91.7579C91.8139 60.468 91.906 60.336 92.034 60.168C92.17 60 92.362 59.852 92.61 59.724C92.858 59.588 93.17 59.52 93.546 59.52C94.01 59.52 94.4059 59.628 94.7339 59.844C95.0619 60.052 95.31 60.336 95.478 60.696C95.654 61.056 95.742 61.46 95.742 61.908V66H94.602V61.98C94.602 61.556 94.482 61.204 94.242 60.924C94.01 60.644 93.67 60.504 93.222 60.504C92.862 60.504 92.57 60.596 92.346 60.78C92.122 60.956 91.9539 61.192 91.8419 61.488C91.7379 61.776 91.686 62.084 91.686 62.412V66H90.546Z" fill="#64748B"/>
<path d="M100.314 66.12C99.794 66.12 99.342 66.028 98.958 65.844C98.582 65.652 98.27 65.396 98.022 65.076C97.782 64.756 97.602 64.404 97.482 64.02C97.362 63.628 97.302 63.228 97.302 62.82C97.302 62.42 97.358 62.024 97.47 61.632C97.59 61.24 97.77 60.884 98.01 60.564C98.258 60.244 98.566 59.992 98.934 59.808C99.31 59.616 99.754 59.52 100.266 59.52C100.81 59.52 101.29 59.644 101.706 59.892C102.122 60.14 102.45 60.508 102.69 60.996C102.93 61.484 103.05 62.096 103.05 62.832V63.168H98.454C98.478 63.528 98.562 63.86 98.706 64.164C98.858 64.46 99.07 64.7 99.342 64.884C99.614 65.06 99.938 65.148 100.314 65.148C100.642 65.148 100.906 65.096 101.106 64.992C101.314 64.88 101.478 64.752 101.598 64.608C101.718 64.464 101.798 64.34 101.838 64.236C101.886 64.124 101.91 64.068 101.91 64.068H102.978C102.978 64.068 102.958 64.14 102.918 64.284C102.878 64.42 102.806 64.588 102.702 64.788C102.598 64.988 102.446 65.192 102.246 65.4C102.046 65.6 101.79 65.772 101.478 65.916C101.166 66.052 100.778 66.12 100.314 66.12ZM98.466 62.28H101.934C101.918 61.864 101.83 61.528 101.67 61.272C101.51 61.008 101.306 60.812 101.058 60.684C100.81 60.556 100.546 60.492 100.266 60.492C99.762 60.492 99.35 60.656 99.03 60.984C98.71 61.304 98.522 61.736 98.466 62.28Z" fill="#64748B"/>
<path d="M104.606 66V59.64H105.746V60.432H105.794C105.93 60.192 106.13 59.98 106.394 59.796C106.658 59.612 107.03 59.52 107.51 59.52C107.646 59.52 107.77 59.528 107.882 59.544C107.994 59.552 108.05 59.556 108.05 59.556V60.648C108.05 60.648 107.986 60.644 107.858 60.636C107.738 60.62 107.61 60.612 107.474 60.612C106.922 60.612 106.494 60.772 106.19 61.092C105.894 61.404 105.746 61.916 105.746 62.628V66H104.606Z" fill="#64748B"/>
<path d="M111.716 66.12C111.196 66.12 110.744 66.028 110.36 65.844C109.984 65.652 109.672 65.396 109.424 65.076C109.184 64.756 109.004 64.404 108.884 64.02C108.764 63.628 108.704 63.228 108.704 62.82C108.704 62.42 108.76 62.024 108.872 61.632C108.992 61.24 109.172 60.884 109.412 60.564C109.66 60.244 109.968 59.992 110.336 59.808C110.712 59.616 111.156 59.52 111.668 59.52C112.212 59.52 112.692 59.644 113.108 59.892C113.524 60.14 113.852 60.508 114.092 60.996C114.332 61.484 114.452 62.096 114.452 62.832V63.168H109.856C109.88 63.528 109.964 63.86 110.108 64.164C110.26 64.46 110.472 64.7 110.744 64.884C111.016 65.06 111.34 65.148 111.716 65.148C112.044 65.148 112.308 65.096 112.508 64.992C112.716 64.88 112.88 64.752 113 64.608C113.12 64.464 113.2 64.34 113.24 64.236C113.288 64.124 113.312 64.068 113.312 64.068H114.38C114.38 64.068 114.36 64.14 114.32 64.284C114.28 64.42 114.208 64.588 114.104 64.788C114 64.988 113.848 65.192 113.648 65.4C113.448 65.6 113.192 65.772 112.88 65.916C112.568 66.052 112.18 66.12 111.716 66.12ZM109.868 62.28H113.336C113.32 61.864 113.232 61.528 113.072 61.272C112.912 61.008 112.708 60.812 112.46 60.684C112.212 60.556 111.948 60.492 111.668 60.492C111.164 60.492 110.752 60.656 110.432 60.984C110.112 61.304 109.924 61.736 109.868 62.28Z" fill="#64748B"/>
<path d="M118.894 66V57.12H120.07V64.968H124.642V66H118.894Z" fill="#64748B"/>
<path d="M126.382 66V57.12H127.558V64.968H132.13V66H126.382Z" fill="#64748B"/>
<path d="M133.87 66V57.12H137.038C137.718 57.12 138.282 57.26 138.73 57.54C139.186 57.82 139.526 58.184 139.75 58.632C139.982 59.072 140.098 59.532 140.098 60.012C140.098 60.5 139.982 60.968 139.75 61.416C139.526 61.856 139.186 62.22 138.73 62.508C138.282 62.788 137.718 62.928 137.038 62.928H135.046V66H133.87ZM137.038 58.152H135.046V61.896H137.038C137.462 61.896 137.814 61.804 138.094 61.62C138.374 61.436 138.582 61.204 138.718 60.924C138.862 60.636 138.934 60.336 138.934 60.024C138.934 59.712 138.862 59.412 138.718 59.124C138.582 58.836 138.374 58.604 138.094 58.428C137.814 58.244 137.462 58.152 137.038 58.152Z" fill="#64748B"/>
<path d="M68.96 108V99.12H70.136V106.968H74.708V108H68.96Z" fill="#64748B"/>
<path d="M78.7398 108.12C78.2198 108.12 77.7678 108.028 77.3838 107.844C77.0078 107.652 76.6958 107.396 76.4478 107.076C76.2078 106.756 76.0278 106.404 75.9078 106.02C75.7878 105.628 75.7278 105.228 75.7278 104.82C75.7278 104.42 75.7838 104.024 75.8958 103.632C76.0158 103.24 76.1958 102.884 76.4358 102.564C76.6838 102.244 76.9918 101.992 77.3598 101.808C77.7358 101.616 78.1798 101.52 78.6918 101.52C79.2358 101.52 79.7158 101.644 80.1318 101.892C80.5478 102.14 80.8758 102.508 81.1158 102.996C81.3558 103.484 81.4758 104.096 81.4758 104.832V105.168H76.8798C76.9038 105.528 76.9878 105.86 77.1318 106.164C77.2838 106.46 77.4958 106.7 77.7678 106.884C78.0398 107.06 78.3638 107.148 78.7398 107.148C79.0678 107.148 79.3318 107.096 79.5318 106.992C79.7398 106.88 79.9038 106.752 80.0238 106.608C80.1438 106.464 80.2238 106.34 80.2638 106.236C80.3118 106.124 80.3358 106.068 80.3358 106.068H81.4038C81.4038 106.068 81.3838 106.14 81.3438 106.284C81.3038 106.42 81.2318 106.588 81.1278 106.788C81.0238 106.988 80.8718 107.192 80.6718 107.4C80.4718 107.6 80.2158 107.772 79.9038 107.916C79.5918 108.052 79.2038 108.12 78.7398 108.12ZM76.8918 104.28H80.3598C80.3438 103.864 80.2558 103.528 80.0958 103.272C79.9358 103.008 79.7318 102.812 79.4838 102.684C79.2358 102.556 78.9718 102.492 78.6918 102.492C78.1878 102.492 77.7758 102.656 77.4558 102.984C77.1358 103.304 76.9478 103.736 76.8918 104.28Z" fill="#64748B"/>
<path d="M85.7328 101.52C86.1328 101.52 86.4688 101.584 86.7408 101.712C87.0128 101.84 87.2328 101.992 87.4008 102.168C87.5688 102.336 87.6968 102.496 87.7848 102.648H87.8568V101.64H88.9968V108H87.8568V106.992H87.7848C87.6968 107.144 87.5688 107.308 87.4008 107.484C87.2328 107.66 87.0128 107.812 86.7408 107.94C86.4688 108.06 86.1328 108.12 85.7328 108.12C85.2528 108.12 84.8328 108.028 84.4728 107.844C84.1128 107.652 83.8128 107.4 83.5728 107.088C83.3328 106.768 83.1528 106.412 83.0328 106.02C82.9128 105.628 82.8528 105.228 82.8528 104.82C82.8528 104.412 82.9128 104.012 83.0328 103.62C83.1528 103.228 83.3328 102.876 83.5728 102.564C83.8128 102.244 84.1128 101.992 84.4728 101.808C84.8328 101.616 85.2528 101.52 85.7328 101.52ZM85.9248 102.492C85.5008 102.492 85.1448 102.608 84.8568 102.84C84.5688 103.064 84.3528 103.352 84.2088 103.704C84.0728 104.056 84.0048 104.428 84.0048 104.82C84.0048 105.204 84.0728 105.576 84.2088 105.936C84.3528 106.288 84.5688 106.58 84.8568 106.812C85.1448 107.036 85.5008 107.148 85.9248 107.148C86.3488 107.148 86.7008 107.036 86.9808 106.812C87.2688 106.58 87.4808 106.288 87.6168 105.936C87.7608 105.576 87.8328 105.204 87.8328 104.82C87.8328 104.428 87.7608 104.056 87.6168 103.704C87.4808 103.352 87.2688 103.064 86.9808 102.84C86.7008 102.608 86.3488 102.492 85.9248 102.492Z" fill="#64748B"/>
<path d="M90.672 108V101.64H91.812V102.432H91.86C91.996 102.192 92.196 101.98 92.46 101.796C92.724 101.612 93.096 101.52 93.576 101.52C93.712 101.52 93.836 101.528 93.948 101.544C94.06 101.552 94.116 101.556 94.116 101.556V102.648C94.116 102.648 94.052 102.644 93.924 102.636C93.804 102.62 93.676 102.612 93.54 102.612C92.988 102.612 92.56 102.772 92.256 103.092C91.96 103.404 91.812 103.916 91.812 104.628V108H90.672Z" fill="#64748B"/>
<path d="M95.3713 108V101.64H96.5113V102.564H96.5833C96.6393 102.468 96.7313 102.336 96.8593 102.168C96.9953 102 97.1873 101.852 97.4353 101.724C97.6833 101.588 97.9953 101.52 98.3713 101.52C98.8353 101.52 99.2313 101.628 99.5593 101.844C99.8873 102.052 100.135 102.336 100.303 102.696C100.479 103.056 100.567 103.46 100.567 103.908V108H99.4273V103.98C99.4273 103.556 99.3073 103.204 99.0673 102.924C98.8353 102.644 98.4953 102.504 98.0473 102.504C97.6873 102.504 97.3953 102.596 97.1713 102.78C96.9473 102.956 96.7793 103.192 96.6673 103.488C96.5633 103.776 96.5113 104.084 96.5113 104.412V108H95.3713Z" fill="#64748B"/>
<path d="M102.37 108V99.12H103.546V102.972H107.782V99.12H108.958V108H107.782V104.028H103.546V108H102.37Z" fill="#64748B"/>
<path d="M112.834 108.12C112.202 108.12 111.698 107.924 111.322 107.532C110.946 107.14 110.758 106.596 110.758 105.9V101.64H111.898V105.84C111.898 106.256 112.01 106.576 112.234 106.8C112.466 107.024 112.77 107.136 113.146 107.136C113.53 107.136 113.838 107.036 114.07 106.836C114.302 106.636 114.47 106.38 114.574 106.068C114.678 105.756 114.73 105.436 114.73 105.108V101.64H115.87V108H114.73V107.088H114.658C114.61 107.184 114.518 107.316 114.382 107.484C114.246 107.644 114.054 107.792 113.806 107.928C113.558 108.056 113.234 108.12 112.834 108.12Z" fill="#64748B"/>
<path d="M120.939 108.12C120.539 108.12 120.203 108.056 119.931 107.928C119.659 107.8 119.439 107.648 119.271 107.472C119.111 107.296 118.983 107.136 118.887 106.992H118.815V108H117.675V98.88H118.815V102.648H118.887C118.983 102.496 119.111 102.332 119.271 102.156C119.439 101.98 119.659 101.832 119.931 101.712C120.203 101.584 120.539 101.52 120.939 101.52C121.419 101.52 121.839 101.616 122.199 101.808C122.559 101.992 122.859 102.244 123.099 102.564C123.339 102.876 123.519 103.228 123.639 103.62C123.759 104.012 123.819 104.412 123.819 104.82C123.819 105.228 123.759 105.628 123.639 106.02C123.519 106.412 123.339 106.768 123.099 107.088C122.859 107.4 122.559 107.652 122.199 107.844C121.839 108.028 121.419 108.12 120.939 108.12ZM120.747 107.148C121.179 107.148 121.535 107.036 121.815 106.812C122.103 106.58 122.315 106.288 122.451 105.936C122.595 105.576 122.667 105.204 122.667 104.82C122.667 104.428 122.595 104.056 122.451 103.704C122.315 103.352 122.103 103.064 121.815 102.84C121.535 102.608 121.179 102.492 120.747 102.492C120.323 102.492 119.967 102.608 119.679 102.84C119.399 103.064 119.187 103.352 119.043 103.704C118.907 104.056 118.839 104.428 118.839 104.82C118.839 105.204 118.907 105.576 119.043 105.936C119.187 106.288 119.399 106.58 119.679 106.812C119.967 107.036 120.323 107.148 120.747 107.148Z" fill="#64748B"/>
<path d="M132.169 108.12C131.473 108.12 130.861 107.992 130.333 107.736C129.805 107.472 129.365 107.124 129.013 106.692C128.669 106.252 128.409 105.764 128.233 105.228C128.057 104.684 127.969 104.128 127.969 103.56C127.969 102.992 128.057 102.436 128.233 101.892C128.409 101.348 128.669 100.86 129.013 100.428C129.365 99.988 129.805 99.64 130.333 99.384C130.861 99.128 131.473 99 132.169 99C132.745 99 133.237 99.076 133.645 99.228C134.061 99.372 134.405 99.56 134.677 99.792C134.957 100.024 135.181 100.272 135.349 100.536C135.525 100.8 135.653 101.048 135.733 101.28C135.821 101.512 135.877 101.704 135.901 101.856C135.933 102 135.949 102.072 135.949 102.072H134.773C134.773 102.072 134.757 102.008 134.725 101.88C134.693 101.744 134.629 101.58 134.533 101.388C134.437 101.188 134.293 100.988 134.101 100.788C133.909 100.588 133.657 100.424 133.345 100.296C133.033 100.16 132.645 100.092 132.181 100.092C131.677 100.092 131.237 100.192 130.861 100.392C130.485 100.584 130.169 100.848 129.913 101.184C129.665 101.512 129.477 101.884 129.349 102.3C129.229 102.708 129.169 103.128 129.169 103.56C129.169 103.992 129.229 104.416 129.349 104.832C129.477 105.24 129.665 105.612 129.913 105.948C130.169 106.276 130.485 106.54 130.861 106.74C131.237 106.932 131.677 107.028 132.181 107.028C132.645 107.028 133.033 106.96 133.345 106.824C133.657 106.688 133.909 106.524 134.101 106.332C134.293 106.132 134.437 105.936 134.533 105.744C134.629 105.544 134.693 105.376 134.725 105.24C134.757 105.104 134.773 105.036 134.773 105.036H135.949C135.949 105.036 135.933 105.112 135.901 105.264C135.877 105.408 135.821 105.6 135.733 105.84C135.653 106.072 135.525 106.32 135.349 106.584C135.181 106.84 134.957 107.088 134.677 107.328C134.405 107.56 134.061 107.752 133.645 107.904C133.237 108.048 132.745 108.12 132.169 108.12Z" fill="#64748B"/>
<path d="M140.465 108.12C139.785 108.12 139.213 107.964 138.749 107.652C138.285 107.332 137.933 106.92 137.693 106.416C137.453 105.912 137.333 105.38 137.333 104.82C137.333 104.252 137.453 103.72 137.693 103.224C137.933 102.72 138.285 102.312 138.749 102C139.213 101.68 139.785 101.52 140.465 101.52C141.145 101.52 141.717 101.68 142.181 102C142.645 102.312 142.997 102.72 143.237 103.224C143.477 103.72 143.597 104.252 143.597 104.82C143.597 105.38 143.477 105.912 143.237 106.416C142.997 106.92 142.645 107.332 142.181 107.652C141.717 107.964 141.145 108.12 140.465 108.12ZM140.465 107.124C140.897 107.124 141.257 107.016 141.545 106.8C141.841 106.576 142.061 106.288 142.205 105.936C142.357 105.584 142.433 105.212 142.433 104.82C142.433 104.42 142.357 104.048 142.205 103.704C142.061 103.352 141.841 103.068 141.545 102.852C141.257 102.628 140.897 102.516 140.465 102.516C140.041 102.516 139.681 102.628 139.385 102.852C139.089 103.068 138.865 103.352 138.713 103.704C138.569 104.048 138.497 104.42 138.497 104.82C138.497 105.212 138.569 105.584 138.713 105.936C138.865 106.288 139.089 106.576 139.385 106.8C139.681 107.016 140.041 107.124 140.465 107.124Z" fill="#64748B"/>
<path d="M145.153 108V101.64H146.293V102.564H146.365C146.421 102.468 146.513 102.336 146.641 102.168C146.777 102 146.969 101.852 147.217 101.724C147.465 101.588 147.777 101.52 148.153 101.52C148.617 101.52 149.013 101.628 149.341 101.844C149.669 102.052 149.917 102.336 150.085 102.696C150.261 103.056 150.349 103.46 150.349 103.908V108H149.209V103.98C149.209 103.556 149.089 103.204 148.849 102.924C148.617 102.644 148.277 102.504 147.829 102.504C147.469 102.504 147.177 102.596 146.953 102.78C146.729 102.956 146.561 103.192 146.449 103.488C146.345 103.776 146.293 104.084 146.293 104.412V108H145.153Z" fill="#64748B"/>
<path d="M152.031 108V101.64H153.171V102.564H153.243C153.299 102.468 153.391 102.336 153.519 102.168C153.655 102 153.847 101.852 154.095 101.724C154.343 101.588 154.655 101.52 155.031 101.52C155.495 101.52 155.891 101.628 156.219 101.844C156.547 102.052 156.795 102.336 156.963 102.696C157.139 103.056 157.227 103.46 157.227 103.908V108H156.087V103.98C156.087 103.556 155.967 103.204 155.727 102.924C155.495 102.644 155.155 102.504 154.707 102.504C154.347 102.504 154.055 102.596 153.831 102.78C153.607 102.956 153.439 103.192 153.327 103.488C153.223 103.776 153.171 104.084 153.171 104.412V108H152.031Z" fill="#64748B"/>
<path d="M161.802 108.12C161.282 108.12 160.83 108.028 160.446 107.844C160.07 107.652 159.758 107.396 159.51 107.076C159.27 106.756 159.09 106.404 158.97 106.02C158.85 105.628 158.79 105.228 158.79 104.82C158.79 104.42 158.846 104.024 158.958 103.632C159.078 103.24 159.258 102.884 159.498 102.564C159.746 102.244 160.054 101.992 160.422 101.808C160.798 101.616 161.242 101.52 161.754 101.52C162.298 101.52 162.778 101.644 163.194 101.892C163.61 102.14 163.938 102.508 164.178 102.996C164.418 103.484 164.538 104.096 164.538 104.832V105.168H159.942C159.966 105.528 160.05 105.86 160.194 106.164C160.346 106.46 160.558 106.7 160.83 106.884C161.102 107.06 161.426 107.148 161.802 107.148C162.13 107.148 162.394 107.096 162.594 106.992C162.802 106.88 162.966 106.752 163.086 106.608C163.206 106.464 163.286 106.34 163.326 106.236C163.374 106.124 163.398 106.068 163.398 106.068H164.466C164.466 106.068 164.446 106.14 164.406 106.284C164.366 106.42 164.294 106.588 164.19 106.788C164.086 106.988 163.934 107.192 163.734 107.4C163.534 107.6 163.278 107.772 162.966 107.916C162.654 108.052 162.266 108.12 161.802 108.12ZM159.954 104.28H163.422C163.406 103.864 163.318 103.528 163.158 103.272C162.998 103.008 162.794 102.812 162.546 102.684C162.298 102.556 162.034 102.492 161.754 102.492C161.25 102.492 160.838 102.656 160.518 102.984C160.198 103.304 160.01 103.736 159.954 104.28Z" fill="#64748B"/>
<path d="M169.047 108.12C168.527 108.12 168.071 108.028 167.679 107.844C167.287 107.652 166.959 107.4 166.695 107.088C166.439 106.768 166.243 106.412 166.107 106.02C165.979 105.628 165.915 105.228 165.915 104.82C165.915 104.412 165.979 104.016 166.107 103.632C166.235 103.24 166.427 102.884 166.683 102.564C166.947 102.244 167.275 101.992 167.667 101.808C168.059 101.616 168.519 101.52 169.047 101.52C169.559 101.52 169.983 101.596 170.319 101.748C170.655 101.9 170.923 102.092 171.123 102.324C171.331 102.548 171.483 102.776 171.579 103.008C171.683 103.232 171.751 103.42 171.783 103.572C171.815 103.724 171.831 103.8 171.831 103.8H170.727C170.727 103.8 170.707 103.736 170.667 103.608C170.627 103.472 170.551 103.32 170.439 103.152C170.327 102.984 170.159 102.836 169.935 102.708C169.711 102.572 169.415 102.504 169.047 102.504C168.607 102.504 168.235 102.616 167.931 102.84C167.635 103.056 167.411 103.34 167.259 103.692C167.115 104.044 167.043 104.42 167.043 104.82C167.043 105.22 167.115 105.596 167.259 105.948C167.411 106.3 167.635 106.588 167.931 106.812C168.235 107.028 168.607 107.136 169.047 107.136C169.415 107.136 169.711 107.072 169.935 106.944C170.159 106.808 170.327 106.656 170.439 106.488C170.551 106.32 170.627 106.172 170.667 106.044C170.707 105.908 170.727 105.84 170.727 105.84H171.831C171.831 105.84 171.815 105.916 171.783 106.068C171.751 106.22 171.683 106.412 171.579 106.644C171.483 106.868 171.331 107.096 171.123 107.328C170.923 107.552 170.655 107.74 170.319 107.892C169.983 108.044 169.559 108.12 169.047 108.12Z" fill="#64748B"/>
<path d="M176.095 108.12C175.439 108.12 174.943 107.952 174.607 107.616C174.279 107.28 174.115 106.808 174.115 106.2V102.576H172.975V101.64H174.115V100.044H175.255V101.64H176.803V102.576H175.255V106.2C175.255 106.52 175.343 106.756 175.519 106.908C175.695 107.052 175.951 107.124 176.287 107.124C176.463 107.124 176.631 107.112 176.791 107.088C176.951 107.064 177.031 107.052 177.031 107.052V108.024C177.031 108.024 176.939 108.04 176.755 108.072C176.571 108.104 176.351 108.12 176.095 108.12Z" fill="#64748B"/>
<path d="M68.96 149V140.12H70.136V147.968H74.708V149H68.96Z" fill="#64748B"/>
<path d="M78.7398 149.12C78.2198 149.12 77.7678 149.028 77.3838 148.844C77.0078 148.652 76.6958 148.396 76.4478 148.076C76.2078 147.756 76.0278 147.404 75.9078 147.02C75.7878 146.628 75.7278 146.228 75.7278 145.82C75.7278 145.42 75.7838 145.024 75.8958 144.632C76.0158 144.24 76.1958 143.884 76.4358 143.564C76.6838 143.244 76.9918 142.992 77.3598 142.808C77.7358 142.616 78.1798 142.52 78.6918 142.52C79.2358 142.52 79.7158 142.644 80.1318 142.892C80.5478 143.14 80.8758 143.508 81.1158 143.996C81.3558 144.484 81.4758 145.096 81.4758 145.832V146.168H76.8798C76.9038 146.528 76.9878 146.86 77.1318 147.164C77.2838 147.46 77.4958 147.7 77.7678 147.884C78.0398 148.06 78.3638 148.148 78.7398 148.148C79.0678 148.148 79.3318 148.096 79.5318 147.992C79.7398 147.88 79.9038 147.752 80.0238 147.608C80.1438 147.464 80.2238 147.34 80.2638 147.236C80.3118 147.124 80.3358 147.068 80.3358 147.068H81.4038C81.4038 147.068 81.3838 147.14 81.3438 147.284C81.3038 147.42 81.2318 147.588 81.1278 147.788C81.0238 147.988 80.8718 148.192 80.6718 148.4C80.4718 148.6 80.2158 148.772 79.9038 148.916C79.5918 149.052 79.2038 149.12 78.7398 149.12ZM76.8918 145.28H80.3598C80.3438 144.864 80.2558 144.528 80.0958 144.272C79.9358 144.008 79.7318 143.812 79.4838 143.684C79.2358 143.556 78.9718 143.492 78.6918 143.492C78.1878 143.492 77.7758 143.656 77.4558 143.984C77.1358 144.304 76.9478 144.736 76.8918 145.28Z" fill="#64748B"/>
<path d="M85.7328 142.52C86.1328 142.52 86.4688 142.584 86.7408 142.712C87.0128 142.84 87.2328 142.992 87.4008 143.168C87.5688 143.336 87.6968 143.496 87.7848 143.648H87.8568V142.64H88.9968V149H87.8568V147.992H87.7848C87.6968 148.144 87.5688 148.308 87.4008 148.484C87.2328 148.66 87.0128 148.812 86.7408 148.94C86.4688 149.06 86.1328 149.12 85.7328 149.12C85.2528 149.12 84.8328 149.028 84.4728 148.844C84.1128 148.652 83.8128 148.4 83.5728 148.088C83.3328 147.768 83.1528 147.412 83.0328 147.02C82.9128 146.628 82.8528 146.228 82.8528 145.82C82.8528 145.412 82.9128 145.012 83.0328 144.62C83.1528 144.228 83.3328 143.876 83.5728 143.564C83.8128 143.244 84.1128 142.992 84.4728 142.808C84.8328 142.616 85.2528 142.52 85.7328 142.52ZM85.9248 143.492C85.5008 143.492 85.1448 143.608 84.8568 143.84C84.5688 144.064 84.3528 144.352 84.2088 144.704C84.0728 145.056 84.0048 145.428 84.0048 145.82C84.0048 146.204 84.0728 146.576 84.2088 146.936C84.3528 147.288 84.5688 147.58 84.8568 147.812C85.1448 148.036 85.5008 148.148 85.9248 148.148C86.3488 148.148 86.7008 148.036 86.9808 147.812C87.2688 147.58 87.4808 147.288 87.6168 146.936C87.7608 146.576 87.8328 146.204 87.8328 145.82C87.8328 145.428 87.7608 145.056 87.6168 144.704C87.4808 144.352 87.2688 144.064 86.9808 143.84C86.7008 143.608 86.3488 143.492 85.9248 143.492Z" fill="#64748B"/>
<path d="M90.672 149V142.64H91.812V143.432H91.86C91.996 143.192 92.196 142.98 92.46 142.796C92.724 142.612 93.096 142.52 93.576 142.52C93.712 142.52 93.836 142.528 93.948 142.544C94.06 142.552 94.116 142.556 94.116 142.556V143.648C94.116 143.648 94.052 143.644 93.924 143.636C93.804 143.62 93.676 143.612 93.54 143.612C92.988 143.612 92.56 143.772 92.256 144.092C91.96 144.404 91.812 144.916 91.812 145.628V149H90.672Z" fill="#64748B"/>
<path d="M95.3713 149V142.64H96.5113V143.564H96.5833C96.6393 143.468 96.7313 143.336 96.8593 143.168C96.9953 143 97.1873 142.852 97.4353 142.724C97.6833 142.588 97.9953 142.52 98.3713 142.52C98.8353 142.52 99.2313 142.628 99.5593 142.844C99.8873 143.052 100.135 143.336 100.303 143.696C100.479 144.056 100.567 144.46 100.567 144.908V149H99.4273V144.98C99.4273 144.556 99.3073 144.204 99.0673 143.924C98.8353 143.644 98.4953 143.504 98.0473 143.504C97.6873 143.504 97.3953 143.596 97.1713 143.78C96.9473 143.956 96.7793 144.192 96.6673 144.488C96.5633 144.776 96.5113 145.084 96.5113 145.412V149H95.3713Z" fill="#64748B"/>
<path d="M102.37 149V140.12H103.546V143.972H107.782V140.12H108.958V149H107.782V145.028H103.546V149H102.37Z" fill="#64748B"/>
<path d="M112.834 149.12C112.202 149.12 111.698 148.924 111.322 148.532C110.946 148.14 110.758 147.596 110.758 146.9V142.64H111.898V146.84C111.898 147.256 112.01 147.576 112.234 147.8C112.466 148.024 112.77 148.136 113.146 148.136C113.53 148.136 113.838 148.036 114.07 147.836C114.302 147.636 114.47 147.38 114.574 147.068C114.678 146.756 114.73 146.436 114.73 146.108V142.64H115.87V149H114.73V148.088H114.658C114.61 148.184 114.518 148.316 114.382 148.484C114.246 148.644 114.054 148.792 113.806 148.928C113.558 149.056 113.234 149.12 112.834 149.12Z" fill="#64748B"/>
<path d="M120.939 149.12C120.539 149.12 120.203 149.056 119.931 148.928C119.659 148.8 119.439 148.648 119.271 148.472C119.111 148.296 118.983 148.136 118.887 147.992H118.815V149H117.675V139.88H118.815V143.648H118.887C118.983 143.496 119.111 143.332 119.271 143.156C119.439 142.98 119.659 142.832 119.931 142.712C120.203 142.584 120.539 142.52 120.939 142.52C121.419 142.52 121.839 142.616 122.199 142.808C122.559 142.992 122.859 143.244 123.099 143.564C123.339 143.876 123.519 144.228 123.639 144.62C123.759 145.012 123.819 145.412 123.819 145.82C123.819 146.228 123.759 146.628 123.639 147.02C123.519 147.412 123.339 147.768 123.099 148.088C122.859 148.4 122.559 148.652 122.199 148.844C121.839 149.028 121.419 149.12 120.939 149.12ZM120.747 148.148C121.179 148.148 121.535 148.036 121.815 147.812C122.103 147.58 122.315 147.288 122.451 146.936C122.595 146.576 122.667 146.204 122.667 145.82C122.667 145.428 122.595 145.056 122.451 144.704C122.315 144.352 122.103 144.064 121.815 143.84C121.535 143.608 121.179 143.492 120.747 143.492C120.323 143.492 119.967 143.608 119.679 143.84C119.399 144.064 119.187 144.352 119.043 144.704C118.907 145.056 118.839 145.428 118.839 145.82C118.839 146.204 118.907 146.576 119.043 146.936C119.187 147.288 119.399 147.58 119.679 147.812C119.967 148.036 120.323 148.148 120.747 148.148Z" fill="#64748B"/>
<path d="M132.169 149.12C131.473 149.12 130.861 148.992 130.333 148.736C129.805 148.472 129.365 148.124 129.013 147.692C128.669 147.252 128.409 146.764 128.233 146.228C128.057 145.684 127.969 145.128 127.969 144.56C127.969 143.992 128.057 143.436 128.233 142.892C128.409 142.348 128.669 141.86 129.013 141.428C129.365 140.988 129.805 140.64 130.333 140.384C130.861 140.128 131.473 140 132.169 140C132.745 140 133.237 140.076 133.645 140.228C134.061 140.372 134.405 140.56 134.677 140.792C134.957 141.024 135.181 141.272 135.349 141.536C135.525 141.8 135.653 142.048 135.733 142.28C135.821 142.512 135.877 142.704 135.901 142.856C135.933 143 135.949 143.072 135.949 143.072H134.773C134.773 143.072 134.757 143.008 134.725 142.88C134.693 142.744 134.629 142.58 134.533 142.388C134.437 142.188 134.293 141.988 134.101 141.788C133.909 141.588 133.657 141.424 133.345 141.296C133.033 141.16 132.645 141.092 132.181 141.092C131.677 141.092 131.237 141.192 130.861 141.392C130.485 141.584 130.169 141.848 129.913 142.184C129.665 142.512 129.477 142.884 129.349 143.3C129.229 143.708 129.169 144.128 129.169 144.56C129.169 144.992 129.229 145.416 129.349 145.832C129.477 146.24 129.665 146.612 129.913 146.948C130.169 147.276 130.485 147.54 130.861 147.74C131.237 147.932 131.677 148.028 132.181 148.028C132.645 148.028 133.033 147.96 133.345 147.824C133.657 147.688 133.909 147.524 134.101 147.332C134.293 147.132 134.437 146.936 134.533 146.744C134.629 146.544 134.693 146.376 134.725 146.24C134.757 146.104 134.773 146.036 134.773 146.036H135.949C135.949 146.036 135.933 146.112 135.901 146.264C135.877 146.408 135.821 146.6 135.733 146.84C135.653 147.072 135.525 147.32 135.349 147.584C135.181 147.84 134.957 148.088 134.677 148.328C134.405 148.56 134.061 148.752 133.645 148.904C133.237 149.048 132.745 149.12 132.169 149.12Z" fill="#64748B"/>
<path d="M140.465 149.12C139.785 149.12 139.213 148.964 138.749 148.652C138.285 148.332 137.933 147.92 137.693 147.416C137.453 146.912 137.333 146.38 137.333 145.82C137.333 145.252 137.453 144.72 137.693 144.224C137.933 143.72 138.285 143.312 138.749 143C139.213 142.68 139.785 142.52 140.465 142.52C141.145 142.52 141.717 142.68 142.181 143C142.645 143.312 142.997 143.72 143.237 144.224C143.477 144.72 143.597 145.252 143.597 145.82C143.597 146.38 143.477 146.912 143.237 147.416C142.997 147.92 142.645 148.332 142.181 148.652C141.717 148.964 141.145 149.12 140.465 149.12ZM140.465 148.124C140.897 148.124 141.257 148.016 141.545 147.8C141.841 147.576 142.061 147.288 142.205 146.936C142.357 146.584 142.433 146.212 142.433 145.82C142.433 145.42 142.357 145.048 142.205 144.704C142.061 144.352 141.841 144.068 141.545 143.852C141.257 143.628 140.897 143.516 140.465 143.516C140.041 143.516 139.681 143.628 139.385 143.852C139.089 144.068 138.865 144.352 138.713 144.704C138.569 145.048 138.497 145.42 138.497 145.82C138.497 146.212 138.569 146.584 138.713 146.936C138.865 147.288 139.089 147.576 139.385 147.8C139.681 148.016 140.041 148.124 140.465 148.124Z" fill="#64748B"/>
<path d="M145.153 149V142.64H146.293V143.564H146.365C146.421 143.468 146.513 143.336 146.641 143.168C146.777 143 146.969 142.852 147.217 142.724C147.465 142.588 147.777 142.52 148.153 142.52C148.617 142.52 149.013 142.628 149.341 142.844C149.669 143.052 149.917 143.336 150.085 143.696C150.261 144.056 150.349 144.46 150.349 144.908V149H149.209V144.98C149.209 144.556 149.089 144.204 148.849 143.924C148.617 143.644 148.277 143.504 147.829 143.504C147.469 143.504 147.177 143.596 146.953 143.78C146.729 143.956 146.561 144.192 146.449 144.488C146.345 144.776 146.293 145.084 146.293 145.412V149H145.153Z" fill="#64748B"/>
<path d="M152.031 149V142.64H153.171V143.564H153.243C153.299 143.468 153.391 143.336 153.519 143.168C153.655 143 153.847 142.852 154.095 142.724C154.343 142.588 154.655 142.52 155.031 142.52C155.495 142.52 155.891 142.628 156.219 142.844C156.547 143.052 156.795 143.336 156.963 143.696C157.139 144.056 157.227 144.46 157.227 144.908V149H156.087V144.98C156.087 144.556 155.967 144.204 155.727 143.924C155.495 143.644 155.155 143.504 154.707 143.504C154.347 143.504 154.055 143.596 153.831 143.78C153.607 143.956 153.439 144.192 153.327 144.488C153.223 144.776 153.171 145.084 153.171 145.412V149H152.031Z" fill="#64748B"/>
<path d="M161.802 149.12C161.282 149.12 160.83 149.028 160.446 148.844C160.07 148.652 159.758 148.396 159.51 148.076C159.27 147.756 159.09 147.404 158.97 147.02C158.85 146.628 158.79 146.228 158.79 145.82C158.79 145.42 158.846 145.024 158.958 144.632C159.078 144.24 159.258 143.884 159.498 143.564C159.746 143.244 160.054 142.992 160.422 142.808C160.798 142.616 161.242 142.52 161.754 142.52C162.298 142.52 162.778 142.644 163.194 142.892C163.61 143.14 163.938 143.508 164.178 143.996C164.418 144.484 164.538 145.096 164.538 145.832V146.168H159.942C159.966 146.528 160.05 146.86 160.194 147.164C160.346 147.46 160.558 147.7 160.83 147.884C161.102 148.06 161.426 148.148 161.802 148.148C162.13 148.148 162.394 148.096 162.594 147.992C162.802 147.88 162.966 147.752 163.086 147.608C163.206 147.464 163.286 147.34 163.326 147.236C163.374 147.124 163.398 147.068 163.398 147.068H164.466C164.466 147.068 164.446 147.14 164.406 147.284C164.366 147.42 164.294 147.588 164.19 147.788C164.086 147.988 163.934 148.192 163.734 148.4C163.534 148.6 163.278 148.772 162.966 148.916C162.654 149.052 162.266 149.12 161.802 149.12ZM159.954 145.28H163.422C163.406 144.864 163.318 144.528 163.158 144.272C162.998 144.008 162.794 143.812 162.546 143.684C162.298 143.556 162.034 143.492 161.754 143.492C161.25 143.492 160.838 143.656 160.518 143.984C160.198 144.304 160.01 144.736 159.954 145.28Z" fill="#64748B"/>
<path d="M169.047 149.12C168.527 149.12 168.071 149.028 167.679 148.844C167.287 148.652 166.959 148.4 166.695 148.088C166.439 147.768 166.243 147.412 166.107 147.02C165.979 146.628 165.915 146.228 165.915 145.82C165.915 145.412 165.979 145.016 166.107 144.632C166.235 144.24 166.427 143.884 166.683 143.564C166.947 143.244 167.275 142.992 167.667 142.808C168.059 142.616 168.519 142.52 169.047 142.52C169.559 142.52 169.983 142.596 170.319 142.748C170.655 142.9 170.923 143.092 171.123 143.324C171.331 143.548 171.483 143.776 171.579 144.008C171.683 144.232 171.751 144.42 171.783 144.572C171.815 144.724 171.831 144.8 171.831 144.8H170.727C170.727 144.8 170.707 144.736 170.667 144.608C170.627 144.472 170.551 144.32 170.439 144.152C170.327 143.984 170.159 143.836 169.935 143.708C169.711 143.572 169.415 143.504 169.047 143.504C168.607 143.504 168.235 143.616 167.931 143.84C167.635 144.056 167.411 144.34 167.259 144.692C167.115 145.044 167.043 145.42 167.043 145.82C167.043 146.22 167.115 146.596 167.259 146.948C167.411 147.3 167.635 147.588 167.931 147.812C168.235 148.028 168.607 148.136 169.047 148.136C169.415 148.136 169.711 148.072 169.935 147.944C170.159 147.808 170.327 147.656 170.439 147.488C170.551 147.32 170.627 147.172 170.667 147.044C170.707 146.908 170.727 146.84 170.727 146.84H171.831C171.831 146.84 171.815 146.916 171.783 147.068C171.751 147.22 171.683 147.412 171.579 147.644C171.483 147.868 171.331 148.096 171.123 148.328C170.923 148.552 170.655 148.74 170.319 148.892C169.983 149.044 169.559 149.12 169.047 149.12Z" fill="#64748B"/>
<path d="M176.095 149.12C175.439 149.12 174.943 148.952 174.607 148.616C174.279 148.28 174.115 147.808 174.115 147.2V143.576H172.975V142.64H174.115V141.044H175.255V142.64H176.803V143.576H175.255V147.2C175.255 147.52 175.343 147.756 175.519 147.908C175.695 148.052 175.951 148.124 176.287 148.124C176.463 148.124 176.631 148.112 176.791 148.088C176.951 148.064 177.031 148.052 177.031 148.052V149.024C177.031 149.024 176.939 149.04 176.755 149.072C176.571 149.104 176.351 149.12 176.095 149.12Z" fill="#64748B"/>
<path d="M22.248 68.16C21.5653 68.16 20.9787 68.0747 20.488 67.904C20.008 67.7227 19.608 67.4933 19.288 67.216C18.968 66.928 18.712 66.6293 18.52 66.32C18.328 66.0107 18.184 65.7173 18.088 65.44C17.992 65.152 17.928 64.9227 17.896 64.752C17.8747 64.5707 17.864 64.48 17.864 64.48H19.464C19.464 64.48 19.48 64.5547 19.512 64.704C19.544 64.8533 19.608 65.04 19.704 65.264C19.8107 65.488 19.9653 65.7173 20.168 65.952C20.3707 66.176 20.6427 66.3627 20.984 66.512C21.3253 66.6613 21.7573 66.736 22.28 66.736C23.0693 66.736 23.6933 66.5493 24.152 66.176C24.6107 65.792 24.84 65.296 24.84 64.688C24.84 64.1653 24.664 63.76 24.312 63.472C23.9707 63.184 23.48 62.96 22.84 62.8L21.272 62.416C20.7173 62.2773 20.2 62.0853 19.72 61.84C19.2507 61.584 18.872 61.2533 18.584 60.848C18.3067 60.432 18.168 59.9147 18.168 59.296C18.168 58.6027 18.3387 58.0107 18.68 57.52C19.0213 57.0293 19.4853 56.656 20.072 56.4C20.6587 56.1333 21.3253 56 22.072 56C22.7973 56 23.4 56.112 23.88 56.336C24.36 56.56 24.744 56.8373 25.032 57.168C25.32 57.488 25.5333 57.8133 25.672 58.144C25.8107 58.464 25.9013 58.736 25.944 58.96C25.9867 59.184 26.008 59.296 26.008 59.296H24.472C24.472 59.296 24.4507 59.2 24.408 59.008C24.3653 58.816 24.264 58.5973 24.104 58.352C23.944 58.096 23.6987 57.872 23.368 57.68C23.0373 57.488 22.5893 57.392 22.024 57.392C21.256 57.392 20.6747 57.5733 20.28 57.936C19.896 58.2987 19.704 58.7147 19.704 59.184C19.704 59.6107 19.8587 59.9573 20.168 60.224C20.4773 60.48 20.904 60.6773 21.448 60.816L23.144 61.232C23.752 61.3813 24.3013 61.6 24.792 61.888C25.2827 62.1653 25.672 62.528 25.96 62.976C26.248 63.4133 26.392 63.952 26.392 64.592C26.392 65.232 26.232 65.824 25.912 66.368C25.6027 66.912 25.1387 67.3493 24.52 67.68C23.912 68 23.1547 68.16 22.248 68.16Z" fill="white"/>
<path d="M257.004 66V63.936L252.66 63.924V62.856L256.74 57.12H258.18V62.916H259.728V63.936H258.18V66H257.004ZM253.872 62.916H257.004V58.5L253.872 62.916Z" fill="black"/>
<path d="M264.245 66V56.88H265.385V60.564H265.457C265.513 60.468 265.605 60.336 265.733 60.168C265.869 60 266.061 59.852 266.309 59.724C266.557 59.588 266.869 59.52 267.245 59.52C267.709 59.52 268.105 59.628 268.433 59.844C268.761 60.052 269.009 60.336 269.177 60.696C269.353 61.056 269.441 61.46 269.441 61.908V66H268.301V61.98C268.301 61.556 268.181 61.204 267.941 60.924C267.709 60.644 267.369 60.504 266.921 60.504C266.561 60.504 266.269 60.596 266.045 60.78C265.821 60.956 265.653 61.192 265.541 61.488C265.437 61.776 265.385 62.084 265.385 62.412V66H264.245Z" fill="black"/>
<path d="M253.972 108V107.172L255.916 105.372C256.46 104.868 256.936 104.428 257.344 104.052C257.76 103.668 258.084 103.296 258.316 102.936C258.548 102.576 258.664 102.18 258.664 101.748C258.664 101.388 258.576 101.084 258.4 100.836C258.232 100.588 258.012 100.4 257.74 100.272C257.476 100.136 257.2 100.068 256.912 100.068C256.536 100.068 256.228 100.132 255.988 100.26C255.748 100.388 255.564 100.548 255.436 100.74C255.308 100.924 255.216 101.112 255.16 101.304C255.104 101.488 255.072 101.644 255.064 101.772C255.056 101.9 255.052 101.964 255.052 101.964H253.924C253.924 101.964 253.928 101.892 253.936 101.748C253.944 101.604 253.972 101.42 254.02 101.196C254.076 100.972 254.164 100.736 254.284 100.488C254.404 100.232 254.572 99.992 254.788 99.768C255.012 99.544 255.296 99.36 255.64 99.216C255.992 99.072 256.42 99 256.924 99C257.436 99 257.912 99.108 258.352 99.324C258.8 99.532 259.16 99.84 259.432 100.248C259.704 100.648 259.84 101.14 259.84 101.724C259.84 102.26 259.704 102.748 259.432 103.188C259.168 103.62 258.816 104.044 258.376 104.46C257.936 104.876 257.456 105.324 256.936 105.804L255.712 106.932H260.032V108H253.972Z" fill="black"/>
<path d="M264.542 108V98.88H265.682V102.564H265.754C265.81 102.468 265.902 102.336 266.03 102.168C266.166 102 266.358 101.852 266.606 101.724C266.854 101.588 267.166 101.52 267.542 101.52C268.006 101.52 268.402 101.628 268.73 101.844C269.058 102.052 269.306 102.336 269.474 102.696C269.65 103.056 269.738 103.46 269.738 103.908V108H268.598V103.98C268.598 103.556 268.478 103.204 268.238 102.924C268.006 102.644 267.666 102.504 267.218 102.504C266.858 102.504 266.566 102.596 266.342 102.78C266.118 102.956 265.95 103.192 265.838 103.488C265.734 103.776 265.682 104.084 265.682 104.412V108H264.542Z" fill="black"/>
<path d="M253.972 149V148.172L255.916 146.372C256.46 145.868 256.936 145.428 257.344 145.052C257.76 144.668 258.084 144.296 258.316 143.936C258.548 143.576 258.664 143.18 258.664 142.748C258.664 142.388 258.576 142.084 258.4 141.836C258.232 141.588 258.012 141.4 257.74 141.272C257.476 141.136 257.2 141.068 256.912 141.068C256.536 141.068 256.228 141.132 255.988 141.26C255.748 141.388 255.564 141.548 255.436 141.74C255.308 141.924 255.216 142.112 255.16 142.304C255.104 142.488 255.072 142.644 255.064 142.772C255.056 142.9 255.052 142.964 255.052 142.964H253.924C253.924 142.964 253.928 142.892 253.936 142.748C253.944 142.604 253.972 142.42 254.02 142.196C254.076 141.972 254.164 141.736 254.284 141.488C254.404 141.232 254.572 140.992 254.788 140.768C255.012 140.544 255.296 140.36 255.64 140.216C255.992 140.072 256.42 140 256.924 140C257.436 140 257.912 140.108 258.352 140.324C258.8 140.532 259.16 140.84 259.432 141.248C259.704 141.648 259.84 142.14 259.84 142.724C259.84 143.26 259.704 143.748 259.432 144.188C259.168 144.62 258.816 145.044 258.376 145.46C257.936 145.876 257.456 146.324 256.936 146.804L255.712 147.932H260.032V149H253.972Z" fill="black"/>
<path d="M264.542 149V139.88H265.682V143.564H265.754C265.81 143.468 265.902 143.336 266.03 143.168C266.166 143 266.358 142.852 266.606 142.724C266.854 142.588 267.166 142.52 267.542 142.52C268.006 142.52 268.402 142.628 268.73 142.844C269.058 143.052 269.306 143.336 269.474 143.696C269.65 144.056 269.738 144.46 269.738 144.908V149H268.598V144.98C268.598 144.556 268.478 144.204 268.238 143.924C268.006 143.644 267.666 143.504 267.218 143.504C266.858 143.504 266.566 143.596 266.342 143.78C266.118 143.956 265.95 144.192 265.838 144.488C265.734 144.776 265.682 145.084 265.682 145.412V149H264.542Z" fill="black"/>
</g>
<rect x="0.25" y="0.25" width="294.5" height="181.5" rx="9.75" stroke="#CBD5E1" stroke-width="0.5"/>
<path d="M54.25 97.25H43.75C42.9216 97.25 42.25 97.9216 42.25 98.75V109.25C42.25 110.078 42.9216 110.75 43.75 110.75H54.25C55.0784 110.75 55.75 110.078 55.75 109.25V98.75C55.75 97.9216 55.0784 97.25 54.25 97.25Z" stroke="#6B7280" stroke-linecap="round" stroke-linejoin="round"/>
<path d="M46 104H52" stroke="#6B7280" stroke-linecap="round" stroke-linejoin="round"/>
<path d="M49 101V107" stroke="#6B7280" stroke-linecap="round" stroke-linejoin="round"/>
<path d="M54.25 138.25H43.75C42.9216 138.25 42.25 138.922 42.25 139.75V150.25C42.25 151.078 42.9216 151.75 43.75 151.75H54.25C55.0784 151.75 55.75 151.078 55.75 150.25V139.75C55.75 138.922 55.0784 138.25 54.25 138.25Z" stroke="#6B7280" stroke-linecap="round" stroke-linejoin="round"/>
<path d="M46 145H52" stroke="#6B7280" stroke-linecap="round" stroke-linejoin="round"/>
<path d="M49 142V148" stroke="#6B7280" stroke-linecap="round" stroke-linejoin="round"/>
<rect width="295" height="182" fill="url(#paint0_linear_4672_102)"/>
<defs>
<linearGradient id="paint0_linear_4672_102" x1="147.5" y1="0" x2="147.5" y2="295.5" gradientUnits="userSpaceOnUse">
<stop offset="0.283335" stop-color="white" stop-opacity="0"/>
<stop offset="0.930216" stop-color="white"/>
</linearGradient>
<clipPath id="clip0_4672_102">
<rect width="295" height="182" rx="10" fill="white"/>
</clipPath>
</defs>
</svg>
